<?xml version="1.0" encoding="utf-8"?>
<!-- Generator: Adobe Illustrator 16.0.0, SVG Export Plug-In . SVG Version: 6.00 Build 0)  -->
<!DOCTYPE svg PUBLIC "-//W3C//DTD SVG 1.1//EN" "http://www.w3.org/Graphics/SVG/1.1/DTD/svg11.dtd">
<svg version="1.1" id="Layer_1" xmlns="http://www.w3.org/2000/svg" xmlns:xlink="http://www.w3.org/1999/xlink" x="0px" y="0px"
	 width="186px" height="39.053px" viewBox="0 0 186 39.053" enable-background="new 0 0 186 39.053" xml:space="preserve">
<rect x="-684" y="-48.947" fill="#FFFFFF" width="73" height="73"/>
<g>
	<path fill="#685C61" d="M-90.471-86.938c3.094,0,3.529-1.7,3.529-3.227c0-1.217-0.174-2.438-0.348-3.66
		c-0.174-1.221-0.35-2.399-0.35-3.62c0-4.011,2.615-5.707,6.322-5.707h0.915v2.396h-0.784c-2.574,0-3.445,1.395-3.445,3.747
		c0,1.005,0.132,2.049,0.306,3.096c0.174,1.09,0.306,2.137,0.306,3.312c0.044,2.79-1.178,4.188-3.141,4.706v0.093
		c1.963,0.477,3.185,1.959,3.141,4.749c0,1.179-0.132,2.266-0.306,3.315c-0.174,1.086-0.306,2.091-0.306,3.138
		c0,2.442,1.003,3.791,3.445,3.791h0.784v2.399h-0.915c-3.619,0-6.322-1.568-6.322-5.974c0-1.175,0.176-2.396,0.35-3.574
		c0.174-1.178,0.348-2.357,0.348-3.532c0-1.352-0.436-3.227-3.529-3.227V-86.938z"/>
	<g>
		<g>
			<g>
				<path fill="#685C61" d="M-76.654-81.881h2.081c0.216,0,0.396,0.051,0.54,0.15c0.144,0.102,0.241,0.238,0.291,0.411l2.266,7.97
					c0.057,0.197,0.105,0.411,0.152,0.64c0.046,0.231,0.09,0.477,0.133,0.732c0.05-0.256,0.104-0.501,0.162-0.732
					c0.059-0.229,0.121-0.442,0.188-0.64l2.617-7.97c0.05-0.141,0.146-0.27,0.29-0.388c0.145-0.117,0.321-0.174,0.53-0.174h0.727
					c0.216,0,0.395,0.051,0.535,0.15c0.141,0.102,0.24,0.238,0.296,0.411l2.599,7.97c0.135,0.393,0.251,0.83,0.35,1.31
					c0.043-0.24,0.087-0.47,0.134-0.691c0.046-0.221,0.094-0.427,0.143-0.618l2.267-7.97c0.042-0.154,0.138-0.286,0.285-0.397
					c0.148-0.109,0.326-0.164,0.534-0.164h1.944l-4.138,13.323h-2.237l-2.912-9.104c-0.037-0.116-0.076-0.242-0.115-0.377
					c-0.04-0.136-0.078-0.28-0.116-0.434c-0.037,0.153-0.075,0.298-0.115,0.434c-0.039,0.135-0.078,0.261-0.114,0.377l-2.94,9.104
					h-2.237L-76.654-81.881z"/>
				<path fill="#685C61" d="M-53.342-68.558h-2.489v-13.323h2.489V-68.558z"/>
				<path fill="#685C61" d="M-44.229-70.381c0.558,0,1.046-0.051,1.461-0.153c0.414-0.102,0.809-0.241,1.183-0.419v-2.424h-1.667
					c-0.159,0-0.284-0.045-0.377-0.134c-0.093-0.088-0.139-0.198-0.139-0.326v-1.4h4.432v5.391
					c-0.337,0.244-0.689,0.458-1.055,0.641c-0.365,0.18-0.756,0.328-1.171,0.446c-0.415,0.115-0.857,0.204-1.331,0.262
					c-0.473,0.06-0.982,0.089-1.529,0.089c-0.972,0-1.864-0.17-2.682-0.508s-1.523-0.809-2.12-1.41
					c-0.595-0.603-1.061-1.321-1.396-2.155c-0.335-0.837-0.501-1.749-0.501-2.737c0-1.001,0.162-1.919,0.487-2.755
					c0.325-0.837,0.788-1.556,1.388-2.156c0.598-0.603,1.324-1.069,2.179-1.402c0.854-0.33,1.813-0.497,2.875-0.497
					c1.088,0,2.029,0.163,2.824,0.484c0.794,0.322,1.469,0.742,2.022,1.259l-0.719,1.124c-0.142,0.227-0.328,0.34-0.562,0.34
					c-0.148,0-0.299-0.048-0.453-0.146c-0.194-0.117-0.396-0.233-0.603-0.351s-0.433-0.217-0.682-0.303
					c-0.248-0.087-0.529-0.157-0.839-0.214c-0.311-0.056-0.668-0.082-1.073-0.082c-0.657,0-1.252,0.109-1.782,0.331
					c-0.533,0.221-0.985,0.538-1.361,0.949c-0.374,0.411-0.661,0.907-0.865,1.484c-0.202,0.577-0.304,1.222-0.304,1.935
					c0,0.768,0.107,1.451,0.322,2.05c0.215,0.6,0.516,1.104,0.903,1.516c0.387,0.411,0.849,0.727,1.383,0.946
					C-45.446-70.491-44.863-70.381-44.229-70.381z"/>
				<path fill="#685C61" d="M-28.622-81.881v1.972h-5.904v3.694h4.652v1.907h-4.652v3.77h5.904v1.98h-8.402v-13.323H-28.622z"/>
				<path fill="#685C61" d="M-23.994-70.603h5.335v2.045h-7.813v-13.323h2.479V-70.603z"/>
				<path fill="#685C61" d="M-9.967-73.474c0.09,0.212,0.177,0.425,0.264,0.641c0.084-0.222,0.175-0.438,0.267-0.653
					c0.093-0.216,0.189-0.422,0.295-0.619l3.943-7.381c0.051-0.091,0.1-0.166,0.152-0.221s0.11-0.096,0.175-0.119
					c0.065-0.025,0.138-0.04,0.217-0.047c0.079-0.006,0.175-0.008,0.286-0.008h1.87v13.323h-2.185v-8.606
					c0-0.159,0.005-0.335,0.014-0.524c0.01-0.19,0.023-0.384,0.041-0.582l-4.025,7.557c-0.093,0.172-0.212,0.306-0.36,0.401
					c-0.146,0.096-0.318,0.143-0.515,0.143H-9.87c-0.197,0-0.368-0.047-0.517-0.143c-0.146-0.096-0.265-0.229-0.357-0.401
					l-4.083-7.584c0.025,0.204,0.041,0.401,0.052,0.596c0.009,0.193,0.013,0.371,0.013,0.538v8.606h-2.184v-13.323h1.87
					c0.11,0,0.206,0.002,0.286,0.008c0.079,0.007,0.151,0.021,0.216,0.047c0.065,0.023,0.126,0.064,0.18,0.119
					c0.055,0.055,0.107,0.13,0.156,0.221l3.981,7.4C-10.152-73.891-10.056-73.685-9.967-73.474z"/>
				<path fill="#685C61" d="M11.905-68.558H9.987c-0.215,0-0.392-0.054-0.53-0.161c-0.137-0.107-0.237-0.24-0.299-0.401
					l-0.996-2.718h-5.52L1.648-69.12c-0.049,0.144-0.146,0.271-0.29,0.388c-0.145,0.118-0.321,0.175-0.531,0.175h-1.925
					l5.234-13.323h2.534L11.905-68.558z M3.278-73.589h4.249l-1.623-4.433c-0.073-0.196-0.154-0.428-0.243-0.695
					c-0.09-0.267-0.178-0.559-0.262-0.871c-0.087,0.313-0.172,0.604-0.255,0.875c-0.081,0.272-0.163,0.507-0.244,0.71L3.278-73.589z
					"/>
				<path fill="#685C61" d="M14.853-81.867c0.073,0.007,0.14,0.027,0.198,0.055c0.058,0.027,0.115,0.066,0.171,0.119
					c0.055,0.053,0.115,0.122,0.185,0.207l6.993,8.912c-0.025-0.216-0.042-0.428-0.051-0.633c-0.01-0.205-0.015-0.397-0.015-0.576
					v-8.098h2.185v13.323h-1.281c-0.196,0-0.359-0.03-0.488-0.093c-0.129-0.061-0.256-0.17-0.378-0.33l-6.965-8.875
					c0.018,0.197,0.03,0.392,0.041,0.586c0.009,0.193,0.013,0.369,0.013,0.53v8.182h-2.183v-13.323h1.298
					C14.688-81.881,14.778-81.878,14.853-81.867z"/>
			</g>
			<g>
				<path fill="#685C61" d="M-74.177-97.567h0.581c0.232,0,0.427-0.033,0.58-0.096c0.154-0.064,0.286-0.169,0.396-0.31l3.677-4.654
					c0.153-0.196,0.314-0.333,0.483-0.409c0.17-0.076,0.383-0.115,0.641-0.115h2.138l-4.487,5.538
					c-0.142,0.172-0.276,0.316-0.405,0.435c-0.129,0.114-0.268,0.21-0.414,0.283c0.201,0.074,0.385,0.178,0.548,0.313
					c0.162,0.136,0.321,0.309,0.474,0.518l4.626,6.239h-2.193c-0.294,0-0.514-0.042-0.658-0.126
					c-0.146-0.082-0.267-0.204-0.364-0.364l-3.769-4.919c-0.122-0.16-0.261-0.275-0.414-0.347c-0.154-0.069-0.372-0.105-0.655-0.105
					h-0.783v5.861h-2.478v-13.335h2.478V-97.567z"/>
				<path fill="#685C61" d="M-55.472-103.151v1.972h-5.906v3.695h4.653v1.906h-4.653v3.77h5.906v1.982h-8.402v-13.325H-55.472z"/>
				<path fill="#685C61" d="M-50.764-95.033v5.207h-2.479v-13.325h4.063c0.91,0,1.688,0.094,2.336,0.282
					c0.648,0.186,1.18,0.449,1.594,0.787c0.415,0.339,0.719,0.742,0.913,1.212c0.193,0.47,0.29,0.987,0.29,1.553
					c0,0.448-0.066,0.872-0.198,1.271c-0.132,0.399-0.321,0.762-0.57,1.089c-0.249,0.325-0.557,0.611-0.922,0.855
					c-0.365,0.247-0.782,0.442-1.249,0.589c0.313,0.179,0.583,0.435,0.812,0.767l3.335,4.921h-2.23c-0.215,0-0.397-0.044-0.548-0.13
					s-0.278-0.209-0.382-0.368l-2.801-4.267c-0.104-0.161-0.221-0.274-0.347-0.341c-0.126-0.068-0.311-0.102-0.558-0.102H-50.764z
					 M-50.764-96.811h1.55c0.466,0,0.873-0.06,1.22-0.177c0.348-0.116,0.632-0.278,0.857-0.483c0.224-0.206,0.392-0.449,0.5-0.732
					c0.112-0.282,0.167-0.593,0.167-0.931c0-0.676-0.223-1.194-0.667-1.557c-0.446-0.362-1.126-0.544-2.042-0.544h-1.585V-96.811z"
					/>
				<path fill="#685C61" d="M-32.851-103.151v1.972h-5.906v3.695h4.653v1.906h-4.653v3.77h5.906v1.982h-8.402v-13.325H-32.851z"/>
				<path fill="#685C61" d="M-29.127-103.139c0.073,0.011,0.14,0.028,0.198,0.056c0.058,0.029,0.114,0.068,0.17,0.121
					c0.056,0.052,0.116,0.122,0.184,0.206l6.995,8.911c-0.025-0.216-0.043-0.426-0.052-0.63c-0.009-0.206-0.014-0.398-0.014-0.576
					v-8.101h2.184v13.325h-1.28c-0.197,0-0.36-0.032-0.489-0.093c-0.128-0.063-0.255-0.173-0.377-0.333l-6.967-8.871
					c0.018,0.195,0.033,0.391,0.042,0.583c0.01,0.193,0.013,0.37,0.013,0.53v8.184h-2.183v-13.325h1.299
					C-29.294-103.151-29.201-103.147-29.127-103.139z"/>
			</g>
		</g>
	</g>
</g>
<g>
	<path fill="#00A99D" d="M41.42-43.168c-3.079,0-3.513,1.691-3.513,3.21c0,1.211,0.174,2.426,0.347,3.642
		c0.174,1.214,0.348,2.387,0.348,3.602c0,3.99-2.603,5.679-6.29,5.679H31.4v-2.384h0.781c2.561,0,3.427-1.388,3.427-3.729
		c0-0.999-0.13-2.038-0.304-3.08c-0.172-1.083-0.303-2.125-0.303-3.294c-0.045-2.776,1.17-4.167,3.124-4.683v-0.093
		c-1.954-0.473-3.169-1.949-3.124-4.724c0-1.174,0.131-2.255,0.303-3.3c0.174-1.08,0.304-2.08,0.304-3.122
		c0-2.429-0.997-3.771-3.427-3.771H31.4v-2.387h0.911c3.602,0,6.29,1.56,6.29,5.943c0,1.169-0.174,2.383-0.348,3.556
		c-0.173,1.172-0.347,2.345-0.347,3.515c0,1.345,0.434,3.21,3.513,3.21V-43.168z"/>
</g>
<g>
	<path fill="#685C61" d="M-160.459,137.552c-3.172,0-3.619,1.742-3.619,3.308c0,1.247,0.18,2.499,0.357,3.752
		c0.179,1.25,0.358,2.459,0.358,3.711c0,4.111-2.682,5.851-6.481,5.851h-0.938v-2.456h0.805c2.639,0,3.531-1.43,3.531-3.843
		c0-1.029-0.134-2.1-0.313-3.174c-0.177-1.115-0.312-2.189-0.312-3.394c-0.047-2.86,1.205-4.293,3.219-4.824v-0.096
		c-2.014-0.487-3.266-2.009-3.219-4.867c0-1.21,0.135-2.323,0.312-3.4c0.18-1.112,0.313-2.143,0.313-3.217
		c0-2.502-1.027-3.886-3.531-3.886h-0.805v-2.459h0.938c3.711,0,6.481,1.606,6.481,6.124c0,1.204-0.18,2.455-0.358,3.663
		c-0.178,1.208-0.357,2.416-0.357,3.621c0,1.386,0.447,3.308,3.619,3.308V137.552z"/>
</g>
<g>
	<path fill="#685C61" d="M-170.318,137.552c-3.172,0-3.619,1.742-3.619,3.308c0,1.247,0.18,2.499,0.357,3.752
		c0.179,1.25,0.358,2.459,0.358,3.711c0,4.111-2.682,5.851-6.481,5.851h-0.938v-2.456h0.805c2.639,0,3.531-1.43,3.531-3.843
		c0-1.029-0.134-2.1-0.313-3.174c-0.177-1.115-0.312-2.189-0.312-3.394c-0.047-2.86,1.205-4.293,3.219-4.824v-0.096
		c-2.014-0.487-3.266-2.009-3.219-4.867c0-1.21,0.135-2.323,0.312-3.4c0.18-1.112,0.313-2.143,0.313-3.217
		c0-2.502-1.027-3.886-3.531-3.886h-0.805v-2.459h0.938c3.711,0,6.481,1.606,6.481,6.124c0,1.204-0.18,2.455-0.358,3.663
		c-0.178,1.208-0.357,2.416-0.357,3.621c0,1.386,0.447,3.308,3.619,3.308V137.552z"/>
</g>
<g>
	<path fill="#00A99D" d="M-67.982-62.375v1.967h-6.01v3.934h5.072v1.977h-5.072v5.414h-2.541v-13.291H-67.982z"/>
	<path fill="#00A99D" d="M-60.154-51.079c0.487,0,0.924-0.079,1.308-0.239c0.384-0.158,0.71-0.383,0.976-0.67
		c0.266-0.289,0.469-0.638,0.609-1.049c0.141-0.41,0.211-0.869,0.211-1.379v-7.959h2.521v7.959c0,0.791-0.13,1.521-0.389,2.193
		c-0.26,0.67-0.633,1.25-1.121,1.736c-0.487,0.487-1.078,0.867-1.771,1.141c-0.693,0.271-1.475,0.408-2.344,0.408
		s-1.65-0.137-2.344-0.408c-0.693-0.273-1.283-0.653-1.768-1.141c-0.484-0.486-0.855-1.066-1.115-1.736
		c-0.26-0.672-0.389-1.402-0.389-2.193v-7.959h2.521v7.95c0,0.509,0.07,0.968,0.211,1.379s0.342,0.761,0.604,1.052
		c0.263,0.292,0.586,0.518,0.97,0.676C-61.078-51.158-60.643-51.079-60.154-51.079z"/>
	<path fill="#00A99D" d="M-49.045-51.125h5.428v2.041h-7.95v-13.291h2.522V-51.125z"/>
	<path fill="#00A99D" d="M-38.957-51.125h5.428v2.041h-7.95v-13.291h2.522V-51.125z"/>
	<path fill="#00A99D" d="M-24.126-59.957c-0.069,0.135-0.148,0.229-0.239,0.284s-0.198,0.083-0.323,0.083s-0.266-0.047-0.422-0.143
		s-0.342-0.201-0.554-0.317s-0.461-0.222-0.745-0.317c-0.285-0.094-0.62-0.143-1.008-0.143c-0.35,0-0.654,0.042-0.914,0.125
		c-0.26,0.082-0.479,0.197-0.656,0.344c-0.178,0.147-0.311,0.324-0.398,0.529s-0.131,0.43-0.131,0.676
		c0,0.313,0.089,0.572,0.267,0.781c0.179,0.208,0.414,0.386,0.708,0.533c0.294,0.146,0.628,0.278,1.003,0.395
		c0.375,0.117,0.758,0.24,1.148,0.373c0.391,0.131,0.773,0.284,1.148,0.459s0.71,0.395,1.003,0.662
		c0.294,0.266,0.53,0.592,0.708,0.979c0.179,0.386,0.268,0.854,0.268,1.406c0,0.601-0.104,1.162-0.314,1.687s-0.516,0.98-0.919,1.37
		c-0.402,0.389-0.895,0.695-1.477,0.918c-0.581,0.225-1.246,0.336-1.996,0.336c-0.432,0-0.857-0.041-1.275-0.124
		c-0.419-0.083-0.82-0.2-1.205-0.354c-0.384-0.152-0.744-0.336-1.078-0.551s-0.633-0.453-0.895-0.717l0.73-1.186
		c0.069-0.086,0.152-0.158,0.249-0.217c0.097-0.058,0.204-0.087,0.323-0.087c0.156,0,0.324,0.063,0.506,0.188
		c0.182,0.126,0.396,0.266,0.643,0.418c0.247,0.153,0.537,0.293,0.872,0.418c0.334,0.126,0.735,0.189,1.204,0.189
		c0.719,0,1.275-0.168,1.669-0.502s0.591-0.813,0.591-1.438c0-0.35-0.089-0.635-0.268-0.855c-0.178-0.221-0.414-0.406-0.707-0.556
		c-0.295-0.15-0.629-0.277-1.004-0.382c-0.375-0.104-0.756-0.217-1.144-0.34s-0.769-0.27-1.144-0.441s-0.709-0.395-1.003-0.671
		c-0.294-0.275-0.53-0.62-0.708-1.034c-0.178-0.413-0.268-0.924-0.268-1.529c0-0.484,0.099-0.957,0.296-1.416
		c0.196-0.459,0.483-0.867,0.862-1.223c0.378-0.355,0.842-0.641,1.393-0.854c0.549-0.214,1.178-0.321,1.884-0.321
		c0.8,0,1.538,0.122,2.213,0.367s1.25,0.588,1.725,1.029L-24.126-59.957z"/>
	<path fill="#00A99D" d="M-11.386-62.375v2.031h-4.078v11.26h-2.521v-11.26h-4.098v-2.031H-11.386z"/>
	<path fill="#00A99D" d="M1.148-49.084h-1.95c-0.219,0-0.398-0.055-0.539-0.161c-0.141-0.107-0.242-0.241-0.305-0.399l-1.012-2.712
		h-5.616l-1.013,2.712c-0.05,0.141-0.148,0.27-0.295,0.385c-0.146,0.117-0.326,0.176-0.539,0.176h-1.959l5.324-13.291h2.578
		L1.148-49.084z M-7.626-54.104h4.321l-1.649-4.42c-0.075-0.196-0.158-0.428-0.249-0.694s-0.18-0.556-0.267-0.868
		c-0.088,0.313-0.174,0.604-0.258,0.873c-0.085,0.27-0.168,0.506-0.249,0.707L-7.626-54.104z"/>
	<path fill="#00A99D" d="M11.78-52.219c0.137,0,0.256,0.053,0.355,0.156l0.994,1.057c-0.551,0.668-1.227,1.18-2.029,1.535
		c-0.804,0.355-1.768,0.533-2.893,0.533c-1.006,0-1.911-0.168-2.715-0.506c-0.803-0.336-1.488-0.805-2.057-1.406
		c-0.569-0.6-1.006-1.316-1.309-2.15c-0.303-0.833-0.455-1.743-0.455-2.729c0-0.999,0.17-1.913,0.507-2.743
		c0.337-0.831,0.813-1.547,1.425-2.146c0.613-0.601,1.346-1.068,2.199-1.402c0.853-0.334,1.795-0.5,2.826-0.5
		c1.006,0,1.886,0.157,2.639,0.473c0.754,0.316,1.398,0.734,1.936,1.255l-0.844,1.149c-0.049,0.072-0.113,0.137-0.191,0.192
		s-0.186,0.083-0.324,0.083c-0.143,0-0.29-0.056-0.439-0.166c-0.15-0.109-0.342-0.229-0.572-0.358
		c-0.231-0.128-0.523-0.248-0.877-0.358s-0.801-0.165-1.346-0.165c-0.637,0-1.223,0.108-1.758,0.326
		c-0.533,0.218-0.993,0.528-1.377,0.933c-0.385,0.404-0.686,0.896-0.9,1.476c-0.216,0.579-0.324,1.229-0.324,1.953
		c0,0.747,0.108,1.412,0.324,1.994c0.215,0.583,0.508,1.072,0.877,1.471c0.368,0.398,0.803,0.703,1.303,0.915
		c0.5,0.211,1.037,0.316,1.612,0.316c0.344,0,0.655-0.018,0.933-0.055c0.278-0.037,0.535-0.096,0.77-0.175s0.455-0.183,0.665-0.308
		c0.21-0.126,0.417-0.281,0.624-0.465c0.063-0.055,0.127-0.1,0.196-0.133S11.698-52.219,11.78-52.219z"/>
	<path fill="#00A99D" d="M18.032-56.805h0.591c0.237,0,0.435-0.033,0.591-0.097c0.156-0.064,0.291-0.167,0.403-0.308l3.74-4.643
		c0.156-0.195,0.32-0.332,0.492-0.408s0.39-0.115,0.651-0.115h2.176l-4.566,5.523c-0.144,0.172-0.281,0.316-0.412,0.433
		s-0.271,0.212-0.422,0.284c0.206,0.074,0.393,0.178,0.558,0.313s0.327,0.307,0.483,0.516l4.706,6.223h-2.231
		c-0.3,0-0.523-0.042-0.67-0.125c-0.147-0.082-0.271-0.203-0.371-0.363l-3.834-4.907c-0.125-0.159-0.266-0.274-0.422-0.345
		s-0.379-0.105-0.666-0.105h-0.797v5.846h-2.521v-13.301h2.521V-56.805z"/>
	<path fill="#00A99D" d="M-64.758-33.67c0,0.974-0.162,1.868-0.487,2.684c-0.325,0.814-0.781,1.516-1.37,2.104
		c-0.588,0.588-1.295,1.044-2.123,1.369c-0.826,0.325-1.742,0.487-2.748,0.487h-5.073v-13.291h5.073
		c1.006,0,1.922,0.164,2.748,0.492c0.828,0.328,1.535,0.785,2.123,1.369c0.589,0.586,1.045,1.285,1.37,2.101
		S-64.758-34.645-64.758-33.67z M-67.285-33.67c0-0.73-0.099-1.384-0.295-1.963c-0.195-0.579-0.475-1.069-0.836-1.471
		s-0.801-0.709-1.318-0.924c-0.519-0.215-1.102-0.322-1.752-0.322h-2.582v9.357h2.582c0.65,0,1.233-0.107,1.752-0.322
		c0.518-0.214,0.957-0.521,1.318-0.924c0.361-0.4,0.641-0.891,0.836-1.471C-67.384-32.287-67.285-32.941-67.285-33.67z"/>
	<path fill="#00A99D" d="M-54.437-40.316v1.967h-5.892v3.687h4.642v1.902h-4.642v3.759h5.892v1.977h-8.382v-13.291H-54.437z"/>
	<path fill="#00A99D" d="M-53.6-40.316h1.994c0.215,0,0.389,0.053,0.523,0.156c0.135,0.105,0.236,0.239,0.304,0.404l3.125,8.107
		c0.104,0.264,0.204,0.553,0.299,0.869c0.095,0.314,0.185,0.647,0.271,0.996c0.142-0.704,0.316-1.326,0.524-1.865l3.116-8.107
		c0.055-0.141,0.152-0.27,0.294-0.385c0.141-0.117,0.315-0.176,0.524-0.176h1.994l-5.368,13.291h-2.233L-53.6-40.316z"/>
	<path fill="#00A99D" d="M-30.861-40.316v1.967h-5.892v3.687h4.642v1.902h-4.642v3.759h5.892v1.977h-8.383v-13.291H-30.861z"/>
	<path fill="#00A99D" d="M-26.247-29.066h5.322v2.041h-7.795v-13.291h2.473V-29.066z"/>
	<path fill="#00A99D" d="M-7.202-33.67c0,0.974-0.163,1.876-0.488,2.706c-0.324,0.831-0.781,1.549-1.369,2.155
		c-0.588,0.607-1.296,1.08-2.123,1.42s-1.743,0.51-2.748,0.51c-1.006,0-1.923-0.17-2.753-0.51c-0.831-0.34-1.541-0.813-2.132-1.42
		c-0.592-0.606-1.05-1.324-1.375-2.155c-0.324-0.83-0.486-1.732-0.486-2.706c0-0.975,0.162-1.877,0.486-2.707
		c0.325-0.83,0.783-1.549,1.375-2.156c0.591-0.606,1.301-1.08,2.132-1.42c0.83-0.34,1.747-0.51,2.753-0.51
		c1.005,0,1.921,0.172,2.748,0.515s1.535,0.816,2.123,1.42s1.045,1.321,1.369,2.151C-7.365-35.547-7.202-34.645-7.202-33.67z
		 M-9.739-33.67c0-0.73-0.097-1.384-0.29-1.963c-0.192-0.579-0.47-1.07-0.831-1.475c-0.362-0.405-0.802-0.715-1.319-0.93
		c-0.519-0.214-1.102-0.32-1.751-0.32c-0.65,0-1.234,0.106-1.756,0.32c-0.521,0.215-0.963,0.524-1.328,0.93
		c-0.364,0.404-0.645,0.896-0.841,1.475s-0.294,1.232-0.294,1.963c0,0.729,0.098,1.383,0.294,1.961
		c0.196,0.58,0.477,1.07,0.841,1.471c0.365,0.402,0.808,0.71,1.328,0.924c0.521,0.215,1.105,0.322,1.756,0.322
		c0.649,0,1.232-0.107,1.751-0.322c0.518-0.214,0.957-0.521,1.319-0.924c0.361-0.4,0.639-0.891,0.831-1.471
		C-9.836-32.287-9.739-32.941-9.739-33.67z"/>
	<path fill="#00A99D" d="M-2.699-31.703v4.678h-2.472v-13.291h4.328c0.889,0,1.658,0.105,2.307,0.313
		c0.65,0.209,1.187,0.5,1.609,0.873c0.422,0.375,0.734,0.822,0.938,1.343c0.202,0.521,0.303,1.091,0.303,1.71
		c0,0.643-0.107,1.232-0.321,1.769c-0.215,0.536-0.536,0.997-0.966,1.384c-0.428,0.386-0.965,0.686-1.607,0.9
		c-0.644,0.215-1.397,0.322-2.262,0.322H-2.699z M-2.699-33.634h1.856c0.453,0,0.85-0.057,1.186-0.17
		c0.338-0.113,0.616-0.276,0.837-0.487s0.386-0.469,0.496-0.771c0.11-0.304,0.165-0.643,0.165-1.016
		c0-0.355-0.055-0.678-0.165-0.966S1.4-37.576,1.18-37.779c-0.221-0.202-0.499-0.356-0.837-0.464
		c-0.336-0.107-0.732-0.161-1.186-0.161h-1.856V-33.634z"/>
	<path fill="#00A99D" d="M14.616-40.316v1.967H8.726v3.687h4.641v1.902H8.726v3.759h5.891v1.977H6.234v-13.291H14.616z"/>
	<path fill="#00A99D" d="M19.313-32.219v5.193h-2.473v-13.291h4.054c0.907,0,1.684,0.094,2.33,0.281
		c0.646,0.187,1.177,0.449,1.59,0.785c0.413,0.338,0.717,0.74,0.91,1.209c0.192,0.469,0.29,0.984,0.29,1.549
		c0,0.447-0.066,0.87-0.198,1.268c-0.132,0.398-0.321,0.761-0.569,1.086c-0.248,0.324-0.555,0.609-0.92,0.854
		c-0.364,0.246-0.779,0.441-1.245,0.589c0.313,0.178,0.582,0.433,0.809,0.763l3.327,4.908h-2.225c-0.214,0-0.396-0.043-0.547-0.129
		c-0.149-0.086-0.277-0.208-0.381-0.367l-2.794-4.256c-0.104-0.159-0.22-0.272-0.345-0.34c-0.126-0.067-0.311-0.102-0.557-0.102
		H19.313z M19.313-33.992h1.545c0.465,0,0.871-0.059,1.217-0.175c0.347-0.116,0.631-0.277,0.855-0.482
		c0.223-0.205,0.391-0.448,0.5-0.731c0.111-0.281,0.166-0.591,0.166-0.928c0-0.674-0.223-1.191-0.666-1.553
		c-0.445-0.361-1.123-0.543-2.036-0.543h-1.581V-33.992z"/>
</g>
<g>
	<path fill="#685C61" d="M-284.928,80.11h0.59c0.238,0,0.435-0.031,0.591-0.096s0.291-0.167,0.403-0.309l3.74-4.641
		c0.156-0.196,0.32-0.333,0.492-0.41c0.172-0.076,0.389-0.114,0.652-0.114h2.175l-4.565,5.524c-0.144,0.172-0.281,0.315-0.413,0.432
		s-0.272,0.211-0.422,0.285c0.206,0.073,0.392,0.178,0.558,0.313s0.327,0.307,0.483,0.514l4.707,6.223h-2.231
		c-0.3,0-0.523-0.041-0.67-0.123c-0.147-0.084-0.271-0.204-0.37-0.363l-3.834-4.908c-0.125-0.16-0.266-0.274-0.422-0.345
		s-0.378-0.106-0.666-0.106h-0.797v5.846h-2.522V74.532h2.522V80.11z"/>
	<path fill="#685C61" d="M-265.896,74.541v1.967h-6.01v3.687h4.734v1.902h-4.734v3.759h6.01v1.976h-8.55v-13.29H-265.896z"/>
	<path fill="#685C61" d="M-261.106,82.638v5.192h-2.522v-13.29h4.134c0.925,0,1.717,0.094,2.376,0.28
		c0.66,0.188,1.2,0.449,1.622,0.786s0.731,0.739,0.928,1.208s0.295,0.985,0.295,1.549c0,0.447-0.067,0.871-0.202,1.269
		c-0.135,0.398-0.328,0.761-0.582,1.085c-0.253,0.324-0.565,0.609-0.938,0.854c-0.372,0.245-0.795,0.441-1.27,0.589
		c0.319,0.178,0.594,0.432,0.825,0.762l3.394,4.908h-2.269c-0.219,0-0.404-0.043-0.558-0.129c-0.153-0.085-0.283-0.207-0.389-0.367
		l-2.85-4.256c-0.106-0.158-0.223-0.271-0.352-0.34c-0.128-0.066-0.317-0.101-0.567-0.101H-261.106z M-261.106,80.864h1.575
		c0.475,0,0.889-0.058,1.242-0.174c0.353-0.117,0.644-0.277,0.872-0.482s0.398-0.449,0.511-0.731
		c0.113-0.282,0.169-0.591,0.169-0.929c0-0.674-0.227-1.191-0.68-1.553s-1.146-0.543-2.077-0.543h-1.612V80.864z"/>
	<path fill="#685C61" d="M-242.881,74.541v1.967h-6.01v3.687h4.734v1.902h-4.734v3.759h6.01v1.976h-8.55v-13.29H-242.881z"/>
	<path fill="#685C61" d="M-239.094,74.554c0.075,0.009,0.143,0.028,0.201,0.056c0.061,0.027,0.117,0.066,0.174,0.119
		s0.119,0.121,0.188,0.207l7.115,8.888c-0.024-0.214-0.041-0.425-0.051-0.63s-0.014-0.396-0.014-0.574v-8.079h2.221v13.29h-1.303
		c-0.199,0-0.365-0.03-0.496-0.092c-0.132-0.061-0.26-0.171-0.385-0.33l-7.088-8.852c0.02,0.196,0.033,0.391,0.043,0.584
		c0.009,0.193,0.014,0.369,0.014,0.528v8.161h-2.223v-13.29h1.322C-239.262,74.541-239.168,74.545-239.094,74.554z"/>
	<path fill="#685C61" d="M-288.791,96.6h2.119c0.219,0,0.401,0.051,0.548,0.151c0.146,0.101,0.245,0.237,0.295,0.409l2.306,7.95
		c0.056,0.196,0.108,0.409,0.155,0.639s0.092,0.474,0.136,0.73c0.05-0.257,0.104-0.501,0.164-0.73s0.124-0.442,0.192-0.639
		l2.662-7.95c0.05-0.141,0.148-0.27,0.295-0.387c0.147-0.116,0.327-0.174,0.539-0.174h0.741c0.219,0,0.4,0.051,0.544,0.151
		c0.144,0.101,0.244,0.237,0.3,0.409l2.644,7.95c0.138,0.392,0.256,0.827,0.356,1.306c0.044-0.24,0.089-0.469,0.136-0.689
		s0.095-0.426,0.145-0.616l2.306-7.95c0.044-0.153,0.141-0.285,0.291-0.396c0.15-0.11,0.331-0.165,0.543-0.165h1.978l-4.209,13.29
		h-2.278l-2.962-9.081c-0.038-0.116-0.077-0.242-0.117-0.377c-0.041-0.135-0.08-0.278-0.117-0.432
		c-0.038,0.153-0.077,0.297-0.117,0.432c-0.041,0.135-0.08,0.261-0.117,0.377l-2.991,9.081h-2.278L-288.791,96.6z"/>
	<path fill="#685C61" d="M-264.791,109.89h-2.531V96.6h2.531V109.89z"/>
	<path fill="#685C61" d="M-255.237,108.071c0.569,0,1.064-0.051,1.486-0.152s0.824-0.24,1.205-0.418v-2.418h-1.697
		c-0.163,0-0.291-0.044-0.384-0.133c-0.094-0.088-0.141-0.197-0.141-0.326v-1.396h4.509v5.377c-0.344,0.244-0.702,0.457-1.073,0.639
		c-0.372,0.18-0.769,0.329-1.191,0.445s-0.873,0.203-1.354,0.262s-1,0.088-1.556,0.088c-0.988,0-1.897-0.169-2.728-0.506
		c-0.832-0.337-1.55-0.806-2.156-1.406c-0.606-0.601-1.08-1.317-1.42-2.15c-0.341-0.834-0.511-1.744-0.511-2.73
		c0-0.998,0.166-1.914,0.497-2.748c0.331-0.833,0.802-1.55,1.411-2.15s1.348-1.066,2.217-1.397s1.844-0.496,2.925-0.496
		c1.106,0,2.064,0.161,2.874,0.482c0.809,0.321,1.495,0.739,2.058,1.255L-251,99.311c-0.144,0.227-0.334,0.34-0.572,0.34
		c-0.15,0-0.303-0.049-0.459-0.146c-0.2-0.117-0.404-0.232-0.614-0.35c-0.209-0.116-0.441-0.217-0.694-0.303
		s-0.538-0.156-0.853-0.212c-0.316-0.056-0.68-0.083-1.092-0.083c-0.669,0-1.273,0.11-1.814,0.331s-1.002,0.536-1.383,0.946
		c-0.381,0.411-0.675,0.904-0.881,1.48s-0.31,1.219-0.31,1.93c0,0.766,0.109,1.447,0.328,2.045s0.525,1.102,0.919,1.512
		c0.394,0.411,0.862,0.725,1.406,0.943C-256.475,107.961-255.881,108.071-255.237,108.071z"/>
	<path fill="#685C61" d="M-239.074,96.6v1.967h-6.01v3.686h4.735v1.902h-4.735v3.76h6.01v1.976h-8.551V96.6H-239.074z"/>
	<path fill="#685C61" d="M-234.088,107.85h5.429v2.04h-7.95V96.6h2.521V107.85z"/>
	<path fill="#685C61" d="M-219.533,104.987c0.092,0.211,0.18,0.424,0.268,0.639c0.088-0.221,0.178-0.438,0.271-0.652
		s0.194-0.42,0.301-0.616l4.012-7.362c0.051-0.092,0.102-0.165,0.155-0.221c0.054-0.055,0.112-0.095,0.179-0.119
		c0.064-0.024,0.139-0.039,0.22-0.046c0.081-0.006,0.179-0.009,0.29-0.009h1.904v13.29h-2.223v-8.585
		c0-0.158,0.005-0.334,0.014-0.523c0.01-0.189,0.023-0.383,0.043-0.579l-4.098,7.536c-0.094,0.172-0.215,0.306-0.365,0.4
		c-0.15,0.096-0.324,0.143-0.525,0.143h-0.346c-0.201,0-0.375-0.047-0.525-0.143c-0.15-0.095-0.271-0.229-0.365-0.4l-4.154-7.564
		c0.025,0.203,0.043,0.4,0.053,0.594c0.009,0.193,0.014,0.372,0.014,0.537v8.585h-2.223V96.6h1.904c0.111,0,0.209,0.003,0.29,0.009
		c0.081,0.007,0.155,0.021,0.22,0.046c0.066,0.024,0.127,0.064,0.184,0.119c0.057,0.056,0.109,0.129,0.159,0.221l4.05,7.381
		C-219.722,104.572-219.623,104.776-219.533,104.987z"/>
	<path fill="#685C61" d="M-197,109.89h-1.95c-0.219,0-0.398-0.054-0.539-0.161s-0.242-0.24-0.305-0.399l-1.013-2.712h-5.615
		l-1.013,2.712c-0.05,0.142-0.148,0.27-0.296,0.386c-0.146,0.117-0.326,0.175-0.539,0.175h-1.959l5.325-13.29h2.578L-197,109.89z
		 M-205.775,104.872h4.322l-1.65-4.421c-0.074-0.196-0.158-0.427-0.248-0.694c-0.091-0.266-0.18-0.556-0.268-0.868
		c-0.088,0.313-0.174,0.604-0.258,0.873c-0.084,0.271-0.167,0.506-0.248,0.708L-205.775,104.872z"/>
	<path fill="#685C61" d="M-193.719,96.614c0.074,0.009,0.142,0.027,0.201,0.055s0.117,0.067,0.174,0.119
		c0.057,0.053,0.118,0.121,0.188,0.207l7.115,8.889c-0.025-0.215-0.042-0.425-0.051-0.631c-0.01-0.205-0.015-0.396-0.015-0.574V96.6
		h2.222v13.29h-1.303c-0.2,0-0.365-0.03-0.497-0.092s-0.259-0.171-0.384-0.331l-7.088-8.852c0.019,0.197,0.033,0.391,0.042,0.584
		s0.015,0.369,0.015,0.529v8.161h-2.223V96.6H-194C-193.888,96.6-193.794,96.604-193.719,96.614z"/>
	<path fill="#00A99D" d="M-278.984,118.659v1.967h-6.01v3.934h5.072v1.977h-5.072v5.413h-2.541v-13.29H-278.984z"/>
	<path fill="#00A99D" d="M-271.156,129.954c0.487,0,0.923-0.079,1.308-0.238s0.709-0.383,0.975-0.671s0.469-0.638,0.609-1.048
		s0.211-0.87,0.211-1.379v-7.959h2.522v7.959c0,0.791-0.13,1.521-0.389,2.192s-0.633,1.25-1.121,1.737
		c-0.487,0.486-1.078,0.867-1.771,1.14c-0.694,0.272-1.475,0.409-2.344,0.409c-0.869,0-1.65-0.137-2.344-0.409
		c-0.694-0.272-1.283-0.653-1.768-1.14c-0.484-0.487-0.856-1.066-1.115-1.737c-0.26-0.671-0.389-1.401-0.389-2.192v-7.959h2.522
		v7.949c0,0.51,0.07,0.969,0.211,1.379c0.141,0.411,0.342,0.762,0.604,1.053s0.586,0.517,0.97,0.676
		S-271.644,129.954-271.156,129.954z"/>
	<path fill="#00A99D" d="M-260.047,129.909h5.428v2.04h-7.95v-13.29h2.522V129.909z"/>
	<path fill="#00A99D" d="M-249.959,129.909h5.428v2.04h-7.95v-13.29h2.522V129.909z"/>
	<path fill="#00A99D" d="M-235.128,121.076c-0.069,0.135-0.148,0.229-0.239,0.284c-0.09,0.056-0.198,0.084-0.323,0.084
		s-0.266-0.048-0.422-0.143c-0.156-0.096-0.341-0.201-0.554-0.318c-0.212-0.115-0.461-0.221-0.744-0.316
		c-0.285-0.095-0.621-0.143-1.008-0.143c-0.351,0-0.655,0.041-0.914,0.124c-0.26,0.083-0.479,0.198-0.656,0.345
		c-0.179,0.146-0.312,0.323-0.398,0.529c-0.088,0.205-0.132,0.43-0.132,0.675c0,0.313,0.089,0.573,0.267,0.781
		c0.179,0.208,0.414,0.386,0.709,0.533c0.293,0.147,0.627,0.278,1.002,0.396c0.375,0.116,0.758,0.24,1.148,0.372
		s0.773,0.284,1.148,0.46c0.375,0.174,0.71,0.395,1.004,0.661c0.293,0.267,0.529,0.593,0.707,0.979
		c0.179,0.385,0.268,0.854,0.268,1.406c0,0.6-0.104,1.162-0.314,1.686c-0.209,0.524-0.516,0.98-0.918,1.37
		c-0.403,0.39-0.896,0.695-1.477,0.919c-0.582,0.224-1.247,0.336-1.997,0.336c-0.431,0-0.856-0.042-1.274-0.125
		c-0.42-0.082-0.82-0.2-1.205-0.354c-0.385-0.152-0.744-0.337-1.078-0.551c-0.334-0.215-0.633-0.454-0.896-0.717l0.731-1.187
		c0.068-0.085,0.151-0.157,0.248-0.216c0.098-0.059,0.205-0.088,0.324-0.088c0.156,0,0.324,0.063,0.506,0.189
		c0.182,0.125,0.395,0.265,0.643,0.418c0.246,0.152,0.537,0.293,0.871,0.418s0.736,0.188,1.205,0.188
		c0.719,0,1.275-0.167,1.668-0.501c0.395-0.334,0.592-0.813,0.592-1.438c0-0.349-0.09-0.634-0.268-0.854s-0.414-0.406-0.708-0.557
		s-0.628-0.277-1.003-0.381c-0.375-0.104-0.756-0.218-1.145-0.34c-0.387-0.123-0.768-0.27-1.143-0.441s-0.71-0.396-1.004-0.672
		c-0.293-0.275-0.529-0.619-0.707-1.033c-0.179-0.414-0.268-0.924-0.268-1.53c0-0.483,0.098-0.956,0.295-1.415
		c0.197-0.46,0.484-0.867,0.863-1.223c0.377-0.355,0.842-0.641,1.392-0.855c0.55-0.214,1.179-0.321,1.884-0.321
		c0.801,0,1.538,0.122,2.213,0.368c0.676,0.244,1.25,0.588,1.725,1.029L-235.128,121.076z"/>
	<path fill="#00A99D" d="M-222.387,118.659v2.031h-4.078v11.259h-2.522V120.69h-4.097v-2.031H-222.387z"/>
	<path fill="#00A99D" d="M-209.854,131.949h-1.949c-0.219,0-0.398-0.054-0.539-0.161s-0.242-0.24-0.305-0.399l-1.013-2.712h-5.616
		l-1.012,2.712c-0.051,0.142-0.148,0.27-0.295,0.386c-0.147,0.117-0.327,0.175-0.539,0.175h-1.96l5.325-13.29h2.578
		L-209.854,131.949z M-218.628,126.93h4.321l-1.649-4.421c-0.075-0.196-0.157-0.427-0.249-0.694c-0.09-0.266-0.18-0.556-0.267-0.868
		c-0.087,0.313-0.173,0.604-0.258,0.873c-0.085,0.271-0.167,0.506-0.249,0.708L-218.628,126.93z"/>
	<path fill="#00A99D" d="M-199.222,128.815c0.138,0,0.257,0.052,0.356,0.156l0.994,1.057c-0.551,0.668-1.227,1.18-2.03,1.535
		s-1.767,0.533-2.892,0.533c-1.007,0-1.912-0.169-2.715-0.506s-1.488-0.806-2.058-1.406s-1.005-1.317-1.308-2.15
		c-0.303-0.834-0.455-1.744-0.455-2.73c0-0.998,0.169-1.913,0.506-2.743c0.338-0.831,0.813-1.546,1.426-2.146
		c0.612-0.601,1.346-1.067,2.198-1.401s1.796-0.501,2.827-0.501c1.006,0,1.885,0.157,2.639,0.474
		c0.753,0.315,1.398,0.733,1.936,1.254l-0.844,1.149c-0.05,0.073-0.113,0.138-0.191,0.192c-0.078,0.056-0.187,0.083-0.324,0.083
		c-0.144,0-0.291-0.056-0.44-0.165c-0.149-0.11-0.341-0.23-0.571-0.359c-0.232-0.128-0.523-0.248-0.877-0.357
		c-0.354-0.111-0.802-0.166-1.346-0.166c-0.637,0-1.223,0.109-1.758,0.326c-0.534,0.218-0.994,0.529-1.378,0.934
		s-0.685,0.896-0.899,1.475c-0.217,0.579-0.324,1.23-0.324,1.953c0,0.748,0.107,1.412,0.324,1.994
		c0.215,0.583,0.508,1.072,0.876,1.471s0.804,0.703,1.304,0.915s1.037,0.317,1.611,0.317c0.344,0,0.655-0.019,0.934-0.056
		c0.277-0.036,0.534-0.095,0.769-0.175c0.234-0.079,0.456-0.182,0.665-0.308c0.21-0.126,0.418-0.28,0.624-0.464
		c0.063-0.055,0.128-0.1,0.196-0.133C-199.378,128.832-199.303,128.815-199.222,128.815z"/>
	<path fill="#00A99D" d="M-192.969,124.228h0.59c0.238,0,0.436-0.032,0.592-0.097s0.29-0.166,0.402-0.308l3.74-4.642
		c0.156-0.195,0.32-0.332,0.492-0.409c0.172-0.076,0.39-0.114,0.652-0.114h2.175l-4.565,5.523c-0.145,0.172-0.281,0.316-0.412,0.432
		c-0.132,0.117-0.272,0.212-0.422,0.285c0.205,0.074,0.392,0.178,0.557,0.313c0.166,0.135,0.327,0.307,0.483,0.515l4.706,6.223
		h-2.23c-0.301,0-0.523-0.042-0.671-0.124c-0.147-0.083-0.271-0.203-0.37-0.363l-3.834-4.908c-0.125-0.159-0.266-0.273-0.422-0.344
		s-0.379-0.106-0.666-0.106h-0.797v5.846h-2.521v-13.3h2.521V124.228z"/>
	<path fill="#00A99D" d="M-275.759,147.363c0,0.974-0.163,1.868-0.487,2.684s-0.781,1.517-1.37,2.104
		c-0.588,0.588-1.296,1.045-2.123,1.369c-0.827,0.326-1.743,0.488-2.748,0.488h-5.074v-13.291h5.074
		c1.005,0,1.921,0.164,2.748,0.492s1.535,0.784,2.123,1.369c0.588,0.585,1.045,1.285,1.37,2.1
		C-275.922,145.494-275.759,146.388-275.759,147.363z M-278.287,147.363c0-0.729-0.098-1.384-0.294-1.962
		c-0.196-0.58-0.475-1.07-0.836-1.471c-0.362-0.402-0.801-0.709-1.319-0.924c-0.518-0.215-1.102-0.322-1.751-0.322h-2.583v9.357
		h2.583c0.649,0,1.233-0.107,1.751-0.322c0.518-0.215,0.957-0.522,1.319-0.924c0.361-0.401,0.64-0.892,0.836-1.471
		C-278.385,148.746-278.287,148.092-278.287,147.363z"/>
	<path fill="#00A99D" d="M-265.438,140.717v1.967h-5.892v3.686h4.642v1.902h-4.642v3.76h5.892v1.977h-8.382v-13.291H-265.438z"/>
	<path fill="#00A99D" d="M-264.602,140.717h1.995c0.214,0,0.389,0.053,0.524,0.156c0.135,0.104,0.236,0.238,0.303,0.404l3.125,8.107
		c0.104,0.263,0.204,0.553,0.299,0.868c0.095,0.315,0.185,0.647,0.271,0.997c0.141-0.705,0.315-1.326,0.524-1.865l3.116-8.107
		c0.055-0.141,0.153-0.27,0.294-0.386c0.141-0.116,0.315-0.175,0.524-0.175h1.994L-257,154.008h-2.233L-264.602,140.717z"/>
	<path fill="#00A99D" d="M-241.863,140.717v1.967h-5.891v3.686h4.641v1.902h-4.641v3.76h5.891v1.977h-8.382v-13.291H-241.863z"/>
	<path fill="#00A99D" d="M-237.248,151.967h5.321v2.041h-7.794v-13.291h2.473V151.967z"/>
	<path fill="#00A99D" d="M-218.204,147.363c0,0.974-0.163,1.876-0.487,2.706c-0.324,0.831-0.781,1.549-1.369,2.156
		c-0.589,0.606-1.297,1.08-2.123,1.42c-0.828,0.34-1.744,0.51-2.748,0.51c-1.006,0-1.924-0.17-2.754-0.51s-1.541-0.813-2.132-1.42
		c-0.591-0.607-1.05-1.325-1.374-2.156c-0.324-0.83-0.487-1.732-0.487-2.706c0-0.975,0.163-1.876,0.487-2.707
		c0.324-0.83,0.783-1.549,1.374-2.155c0.591-0.607,1.302-1.08,2.132-1.42s1.748-0.51,2.754-0.51c1.004,0,1.92,0.171,2.748,0.514
		c0.826,0.344,1.534,0.816,2.123,1.42c0.588,0.604,1.045,1.321,1.369,2.151C-218.367,145.487-218.204,146.388-218.204,147.363z
		 M-220.741,147.363c0-0.729-0.097-1.384-0.29-1.962c-0.192-0.58-0.47-1.071-0.831-1.476c-0.362-0.405-0.802-0.714-1.319-0.929
		s-1.102-0.321-1.75-0.321c-0.65,0-1.235,0.106-1.756,0.321c-0.521,0.215-0.964,0.523-1.328,0.929
		c-0.365,0.404-0.646,0.896-0.842,1.476c-0.195,0.578-0.293,1.232-0.293,1.962s0.098,1.383,0.293,1.962
		c0.196,0.579,0.477,1.069,0.842,1.471c0.364,0.401,0.807,0.709,1.328,0.924c0.521,0.215,1.105,0.322,1.756,0.322
		c0.648,0,1.232-0.107,1.75-0.322s0.957-0.522,1.319-0.924c0.361-0.401,0.639-0.892,0.831-1.471
		C-220.838,148.746-220.741,148.092-220.741,147.363z"/>
	<path fill="#00A99D" d="M-213.701,149.33v4.679h-2.472v-13.291h4.329c0.889,0,1.657,0.104,2.307,0.313
		c0.649,0.209,1.186,0.5,1.608,0.873c0.423,0.374,0.735,0.821,0.938,1.342c0.202,0.521,0.304,1.091,0.304,1.71
		c0,0.644-0.107,1.233-0.322,1.769c-0.215,0.537-0.535,0.998-0.965,1.384c-0.429,0.386-0.965,0.687-1.608,0.901
		c-0.644,0.214-1.397,0.321-2.261,0.321H-213.701z M-213.701,147.399h1.857c0.453,0,0.849-0.057,1.186-0.17s0.615-0.275,0.836-0.486
		c0.221-0.212,0.387-0.469,0.496-0.772c0.111-0.304,0.166-0.642,0.166-1.016c0-0.355-0.055-0.677-0.166-0.966
		c-0.109-0.287-0.275-0.532-0.496-0.734c-0.221-0.203-0.499-0.357-0.836-0.465s-0.732-0.16-1.186-0.16h-1.857V147.399z"/>
	<path fill="#00A99D" d="M-196.385,140.717v1.967h-5.892v3.686h4.642v1.902h-4.642v3.76h5.892v1.977h-8.383v-13.291H-196.385z"/>
	<path fill="#00A99D" d="M-191.688,148.815v5.193h-2.473v-13.291h4.053c0.907,0,1.684,0.094,2.33,0.28s1.177,0.449,1.59,0.786
		c0.414,0.337,0.717,0.74,0.91,1.209s0.29,0.984,0.29,1.549c0,0.447-0.065,0.869-0.198,1.268c-0.131,0.398-0.321,0.76-0.569,1.085
		s-0.555,0.609-0.919,0.854c-0.365,0.245-0.78,0.441-1.246,0.588c0.313,0.178,0.582,0.433,0.809,0.764l3.328,4.908h-2.225
		c-0.215,0-0.396-0.043-0.547-0.129s-0.277-0.209-0.381-0.367l-2.795-4.256c-0.104-0.16-0.219-0.273-0.344-0.34
		c-0.127-0.068-0.312-0.102-0.557-0.102H-191.688z M-191.688,147.042h1.544c0.466,0,0.872-0.059,1.218-0.176
		c0.346-0.115,0.631-0.277,0.854-0.482s0.391-0.448,0.501-0.73c0.11-0.281,0.166-0.592,0.166-0.928c0-0.674-0.223-1.191-0.667-1.554
		c-0.444-0.361-1.122-0.542-2.036-0.542h-1.58V147.042z"/>
</g>
<g>
	<path fill="#685C61" d="M-119.575,21.204h0.558c0.225,0,0.412-0.03,0.56-0.091c0.148-0.061,0.275-0.158,0.381-0.291l3.538-4.391
		c0.148-0.186,0.303-0.314,0.465-0.387c0.163-0.072,0.369-0.108,0.618-0.108h2.057l-4.319,5.226
		c-0.137,0.162-0.266,0.298-0.39,0.409c-0.125,0.11-0.258,0.2-0.399,0.269c0.194,0.07,0.371,0.168,0.527,0.295
		c0.157,0.128,0.309,0.291,0.457,0.487l4.452,5.886h-2.109c-0.285,0-0.496-0.04-0.635-0.117c-0.14-0.079-0.256-0.193-0.351-0.344
		l-3.626-4.643c-0.118-0.151-0.251-0.26-0.399-0.326s-0.358-0.1-0.629-0.1h-0.754v5.53h-2.385V15.926h2.385V21.204z"/>
	<path fill="#685C61" d="M-101.572,15.935v1.86h-5.685v3.487h4.479v1.799h-4.479v3.556h5.685v1.869h-8.088V15.935H-101.572z"/>
	<path fill="#685C61" d="M-97.04,23.595v4.913h-2.386V15.935h3.911c0.875,0,1.625,0.088,2.249,0.265
		c0.625,0.177,1.135,0.425,1.535,0.743c0.398,0.319,0.69,0.7,0.877,1.144c0.187,0.444,0.28,0.932,0.28,1.465
		c0,0.423-0.064,0.823-0.19,1.199c-0.129,0.377-0.312,0.719-0.551,1.026c-0.239,0.308-0.535,0.576-0.887,0.808
		c-0.353,0.232-0.753,0.418-1.202,0.557c0.301,0.168,0.562,0.409,0.78,0.722l3.211,4.643h-2.147c-0.206,0-0.381-0.041-0.527-0.122
		c-0.144-0.081-0.266-0.197-0.367-0.347l-2.696-4.026c-0.101-0.151-0.211-0.258-0.333-0.321c-0.121-0.064-0.299-0.096-0.536-0.096
		H-97.04z M-97.04,21.917h1.489c0.449,0,0.841-0.055,1.175-0.166c0.334-0.11,0.609-0.262,0.825-0.456
		c0.215-0.194,0.376-0.425,0.482-0.691c0.107-0.267,0.161-0.56,0.161-0.878c0-0.637-0.215-1.127-0.643-1.469
		c-0.429-0.342-1.083-0.513-1.965-0.513h-1.524V21.917z"/>
	<path fill="#685C61" d="M-79.8,15.935v1.86h-5.685v3.487h4.479v1.799h-4.479v3.556h5.685v1.869h-8.089V15.935H-79.8z"/>
	<path fill="#685C61" d="M-76.218,15.948c0.072,0.009,0.135,0.026,0.191,0.053c0.056,0.026,0.11,0.063,0.163,0.113
		c0.055,0.049,0.112,0.115,0.179,0.195l6.729,8.408c-0.021-0.203-0.039-0.402-0.047-0.596c-0.01-0.194-0.014-0.375-0.014-0.543
		v-7.643h2.101v12.572h-1.231c-0.188,0-0.346-0.029-0.471-0.087c-0.124-0.058-0.245-0.162-0.363-0.313l-6.704-8.373
		c0.018,0.186,0.031,0.37,0.041,0.552c0.008,0.184,0.012,0.35,0.012,0.5v7.721h-2.103V15.935h1.251
		C-76.377,15.935-76.287,15.939-76.218,15.948z"/>
	<path fill="#685C61" d="M-123.229,36.802h2.005c0.207,0,0.38,0.048,0.519,0.143c0.139,0.096,0.232,0.225,0.279,0.387l2.182,7.521
		c0.053,0.186,0.102,0.388,0.146,0.604c0.045,0.218,0.087,0.448,0.129,0.691c0.046-0.243,0.098-0.474,0.156-0.691
		c0.055-0.217,0.116-0.419,0.181-0.604l2.518-7.521c0.048-0.133,0.141-0.255,0.28-0.365c0.14-0.11,0.309-0.165,0.51-0.165h0.701
		c0.207,0,0.378,0.048,0.514,0.143c0.137,0.096,0.231,0.225,0.284,0.387l2.5,7.521c0.131,0.371,0.243,0.783,0.338,1.235
		c0.041-0.228,0.084-0.443,0.128-0.651c0.044-0.209,0.089-0.404,0.137-0.584l2.181-7.521c0.042-0.145,0.133-0.27,0.275-0.374
		c0.142-0.104,0.313-0.156,0.515-0.156h1.87l-3.981,12.571h-2.155l-2.803-8.59c-0.035-0.11-0.072-0.229-0.111-0.356
		c-0.039-0.127-0.076-0.263-0.111-0.408c-0.035,0.146-0.072,0.281-0.111,0.408c-0.039,0.128-0.076,0.246-0.111,0.356l-2.829,8.59
		h-2.155L-123.229,36.802z"/>
	<path fill="#685C61" d="M-100.526,49.374h-2.395V36.802h2.395V49.374z"/>
	<path fill="#685C61" d="M-91.488,47.653c0.539,0,1.005-0.048,1.404-0.144c0.4-0.097,0.779-0.227,1.142-0.396v-2.287h-1.606
		c-0.154,0-0.274-0.042-0.364-0.126c-0.087-0.083-0.132-0.187-0.132-0.309v-1.32h4.265v5.086c-0.324,0.231-0.663,0.433-1.015,0.604
		c-0.353,0.17-0.728,0.313-1.126,0.422c-0.399,0.11-0.827,0.192-1.282,0.247c-0.455,0.056-0.945,0.084-1.47,0.084
		c-0.936,0-1.796-0.16-2.583-0.479c-0.787-0.319-1.467-0.763-2.04-1.33c-0.573-0.569-1.022-1.247-1.343-2.034
		c-0.323-0.789-0.484-1.65-0.484-2.583c0-0.944,0.157-1.811,0.47-2.601c0.313-0.787,0.759-1.465,1.335-2.034
		c0.576-0.568,1.275-1.009,2.097-1.322c0.822-0.313,1.744-0.469,2.767-0.469c1.046,0,1.952,0.152,2.719,0.457
		c0.765,0.304,1.414,0.7,1.946,1.187l-0.692,1.061c-0.136,0.215-0.314,0.322-0.54,0.322c-0.143,0-0.288-0.047-0.436-0.14
		c-0.189-0.11-0.382-0.22-0.58-0.33s-0.418-0.206-0.657-0.287s-0.508-0.148-0.805-0.2c-0.3-0.052-0.645-0.079-1.035-0.079
		c-0.632,0-1.204,0.104-1.715,0.313c-0.512,0.208-0.948,0.507-1.309,0.895c-0.361,0.389-0.639,0.855-0.833,1.401
		c-0.195,0.544-0.293,1.152-0.293,1.825c0,0.724,0.104,1.369,0.311,1.934c0.207,0.565,0.497,1.043,0.869,1.43
		c0.373,0.39,0.816,0.686,1.33,0.893C-92.659,47.549-92.098,47.653-91.488,47.653z"/>
	<path fill="#685C61" d="M-76.198,36.802v1.86h-5.687v3.486h4.479v1.8h-4.479v3.557h5.687v1.868h-8.089V36.802H-76.198z"/>
	<path fill="#685C61" d="M-71.481,47.445h5.134v1.929h-7.521V36.802h2.387V47.445z"/>
	<path fill="#685C61" d="M-57.714,44.736c0.087,0.2,0.171,0.401,0.253,0.604c0.083-0.209,0.169-0.414,0.257-0.617
		c0.089-0.203,0.185-0.397,0.285-0.583l3.795-6.964c0.049-0.087,0.095-0.156,0.146-0.208c0.053-0.052,0.107-0.09,0.169-0.113
		c0.063-0.023,0.133-0.038,0.209-0.043c0.077-0.005,0.169-0.008,0.273-0.008h1.804v12.571h-2.104v-8.12
		c0-0.149,0.006-0.316,0.014-0.495c0.01-0.18,0.021-0.362,0.04-0.549l-3.876,7.129c-0.089,0.164-0.204,0.29-0.346,0.38
		c-0.143,0.09-0.306,0.135-0.496,0.135h-0.327c-0.19,0-0.355-0.045-0.497-0.135c-0.143-0.09-0.257-0.216-0.347-0.38l-3.929-7.154
		c0.023,0.192,0.041,0.378,0.049,0.562c0.01,0.183,0.014,0.352,0.014,0.508v8.12h-2.103V36.802h1.801
		c0.105,0,0.198,0.003,0.274,0.008c0.078,0.006,0.147,0.021,0.208,0.043c0.063,0.023,0.121,0.062,0.173,0.113
		c0.055,0.052,0.105,0.122,0.152,0.208l3.831,6.982C-57.893,44.343-57.8,44.537-57.714,44.736z"/>
	<path fill="#685C61" d="M-36.398,49.374h-1.844c-0.208,0-0.377-0.05-0.512-0.151c-0.132-0.102-0.228-0.228-0.287-0.378
		l-0.957-2.565h-5.313l-0.957,2.565c-0.047,0.134-0.14,0.255-0.28,0.364c-0.138,0.111-0.309,0.165-0.51,0.165h-1.854l5.038-12.571
		h2.438L-36.398,49.374z M-44.699,44.626h4.088l-1.562-4.182c-0.07-0.186-0.149-0.403-0.233-0.657
		c-0.085-0.251-0.171-0.524-0.253-0.82c-0.083,0.296-0.165,0.57-0.245,0.825c-0.079,0.256-0.157,0.479-0.233,0.67L-44.699,44.626z"
		/>
	<path fill="#685C61" d="M-33.295,36.815c0.07,0.009,0.135,0.026,0.191,0.052c0.056,0.026,0.11,0.063,0.163,0.113
		c0.055,0.049,0.112,0.114,0.179,0.195l6.729,8.409c-0.023-0.204-0.039-0.402-0.047-0.597c-0.01-0.195-0.014-0.376-0.014-0.544
		v-7.642h2.101v12.571h-1.231c-0.19,0-0.346-0.027-0.471-0.086c-0.124-0.059-0.245-0.161-0.363-0.313l-6.704-8.373
		c0.018,0.187,0.031,0.369,0.039,0.552c0.008,0.184,0.014,0.35,0.014,0.501v7.72h-2.103V36.802h1.251
		C-33.454,36.802-33.366,36.806-33.295,36.815z"/>
</g>
<g>
	<path fill="#00A99D" d="M-174.472,42.355c-3.172,0-3.619,1.742-3.619,3.308c0,1.247,0.18,2.499,0.357,3.752
		c0.179,1.25,0.358,2.459,0.358,3.711c0,4.111-2.682,5.851-6.481,5.851h-0.938V56.52h0.805c2.639,0,3.531-1.43,3.531-3.843
		c0-1.029-0.134-2.1-0.313-3.174c-0.177-1.115-0.312-2.189-0.312-3.394c-0.047-2.86,1.205-4.293,3.219-4.824V41.19
		c-2.014-0.487-3.266-2.009-3.219-4.867c0-1.21,0.135-2.323,0.312-3.4c0.18-1.112,0.313-2.143,0.313-3.217
		c0-2.502-1.027-3.886-3.531-3.886h-0.805v-2.459h0.938c3.711,0,6.481,1.606,6.481,6.124c0,1.204-0.18,2.455-0.358,3.663
		c-0.178,1.208-0.357,2.416-0.357,3.621c0,1.386,0.447,3.308,3.619,3.308V42.355z"/>
</g>
<g>
	<g>
		<path fill="#685C61" d="M-303.845-4.035c3.172,0,3.619-1.742,3.619-3.307c0-1.247-0.18-2.499-0.357-3.752
			c-0.179-1.25-0.358-2.459-0.358-3.711c0-4.111,2.682-5.851,6.481-5.851h0.938v2.456h-0.805c-2.639,0-3.531,1.43-3.531,3.843
			c0,1.029,0.134,2.1,0.313,3.174c0.177,1.115,0.312,2.189,0.312,3.394c0.047,2.86-1.205,4.292-3.219,4.824v0.096
			c2.014,0.487,3.266,2.009,3.219,4.867c0,1.21-0.135,2.324-0.312,3.4c-0.18,1.113-0.313,2.143-0.313,3.217
			c0,2.502,1.027,3.887,3.531,3.887h0.805v2.459h-0.938c-3.711,0-6.481-1.607-6.481-6.125c0-1.203,0.18-2.455,0.358-3.662
			c0.178-1.209,0.357-2.417,0.357-3.622c0-1.386-0.447-3.308-3.619-3.308V-4.035z"/>
	</g>
</g>
<text transform="matrix(1.02 0 0 1 -291.8237 -7.3662)" fill="#685C61" font-family="'MyriadPro-Regular'" font-size="18.3824">[</text>
<text transform="matrix(1.02 0 0 1 -286.4985 -7.3662)" fill="#685C61" font-family="'Lato-Bold'" font-size="18.3824">KEREN</text>
<text transform="matrix(1.02 0 0 1 -291.8237 14.6929)" fill="#685C61" font-family="'Lato-Bold'" font-size="18.3824">WIGELMAN</text>
<text transform="matrix(1.02 0 0 1 -291.8237 36.7515)" fill="#00A99D" font-family="'Lato-Bold'" font-size="18.3824">FULLSTACK</text>
<text transform="matrix(1 0 0 1 -291.8237 58.811)" fill="#00A99D" font-family="'Lato-Bold'" font-size="18.3824">DEVELOPER</text>
<text transform="matrix(1.02 0 0 1 -296.3237 -101.8662)" fill="#685C61" font-family="'Lato-Bold'" font-size="18.3824">[KEREN</text>
<text transform="matrix(1.02 0 0 1 -296.3237 -79.8071)" fill="#685C61" font-family="'Lato-Bold'" font-size="18.3824">WIGELMAN</text>
<text transform="matrix(1.02 0 0 1 -296.3237 -57.7485)" fill="#00A99D" font-family="'Lato-Bold'" font-size="18.3824">FULLSTACK</text>
<text transform="matrix(1 0 0 1 -296.3237 -35.6895)" fill="#00A99D" font-family="'Lato-Bold'" font-size="18.3824">DEVELOPER]</text>
<text transform="matrix(1.02 0 0 1 -471.0737 20.5195)"><tspan x="0" y="0" fill="#685C61" font-family="'Lato-Bold'" font-size="36.2415">{KW</tspan><tspan x="74.095" y="0" fill="#00A99D" font-family="'Lato-Bold'" font-size="36.2415">FD}</tspan></text>
<text transform="matrix(1.02 0 0 1 -473.4072 78.481)"><tspan x="0" y="0" fill="#00A99D" font-family="'Lato-Bold'" font-size="36.2415">{</tspan><tspan x="11.633" y="0" fill="#685C61" font-family="'Lato-Bold'" font-size="36.2415">KW</tspan><tspan x="74.856" y="0" fill="#00A99D" font-family="'Lato-Bold'" font-size="36.2415">}</tspan></text>
<text transform="matrix(1.02 0 0 1 -468.7407 150.481)"><tspan x="0" y="0" fill="#685C61" font-family="'Lato-Bold'" font-size="36.2415">{</tspan><tspan x="10.872" y="0" fill="#00A99D" font-family="'Lato-Bold'" font-size="36.2415">KW</tspan><tspan x="75.617" y="0" fill="#685C61" font-family="'Lato-Bold'" font-size="36.2415">}</tspan></text>
<text transform="matrix(1.02 0 0 1 -682.436 -1.8481)" fill="#00A99D" font-family="'Lato-Black'" font-size="30"> KW</text>
<path fill="#00A99D" d="M-114.679,59.204v1.657h-5.063v3.313h4.273v1.666h-4.273v4.56h-2.14V59.204H-114.679z"/>
<path fill="#00A99D" d="M-108.084,68.719c0.412,0,0.778-0.067,1.103-0.201c0.323-0.135,0.597-0.322,0.821-0.565
	c0.223-0.242,0.395-0.537,0.514-0.882c0.118-0.346,0.178-0.734,0.178-1.162v-6.705h2.123v6.705c0,0.666-0.108,1.282-0.327,1.846
	c-0.22,0.565-0.533,1.054-0.945,1.464c-0.41,0.409-0.908,0.731-1.493,0.961c-0.584,0.229-1.241,0.345-1.974,0.345
	s-1.39-0.115-1.974-0.345s-1.081-0.552-1.489-0.961c-0.409-0.41-0.721-0.898-0.939-1.464c-0.219-0.563-0.329-1.18-0.329-1.846
	v-6.705h2.125v6.697c0,0.428,0.059,0.815,0.178,1.161c0.118,0.346,0.287,0.641,0.509,0.886c0.221,0.246,0.494,0.436,0.817,0.57
	C-108.863,68.652-108.495,68.719-108.084,68.719z"/>
<path fill="#00A99D" d="M-98.726,68.682h4.572v1.717h-6.696V59.204h2.124V68.682z"/>
<path fill="#00A99D" d="M-90.229,68.682h4.573v1.717h-6.695V59.204h2.122V68.682z"/>
<path fill="#00A99D" d="M-77.735,61.24c-0.059,0.114-0.124,0.192-0.2,0.24c-0.077,0.047-0.169,0.069-0.272,0.069
	c-0.105,0-0.224-0.04-0.356-0.121c-0.13-0.078-0.286-0.168-0.467-0.268c-0.178-0.095-0.389-0.185-0.625-0.266
	c-0.242-0.08-0.523-0.119-0.851-0.119c-0.295,0-0.552,0.034-0.77,0.104c-0.219,0.07-0.402,0.166-0.553,0.29
	s-0.263,0.272-0.335,0.445c-0.075,0.173-0.111,0.362-0.111,0.568c0,0.265,0.073,0.484,0.225,0.658
	c0.148,0.176,0.349,0.325,0.596,0.45c0.246,0.123,0.529,0.233,0.846,0.332c0.313,0.099,0.638,0.203,0.966,0.314
	c0.33,0.111,0.653,0.238,0.969,0.388c0.315,0.146,0.598,0.331,0.845,0.557c0.248,0.224,0.447,0.498,0.596,0.825
	c0.152,0.322,0.227,0.72,0.227,1.185c0,0.504-0.087,0.978-0.267,1.42c-0.175,0.44-0.433,0.825-0.771,1.153
	c-0.342,0.328-0.755,0.585-1.243,0.774c-0.492,0.188-1.051,0.283-1.685,0.283c-0.361,0-0.72-0.035-1.072-0.104
	c-0.354-0.07-0.691-0.169-1.014-0.299c-0.327-0.128-0.63-0.284-0.911-0.464c-0.28-0.182-0.532-0.384-0.753-0.604l0.615-0.999
	c0.057-0.071,0.129-0.132,0.212-0.183c0.08-0.048,0.171-0.073,0.271-0.073c0.131,0,0.272,0.054,0.425,0.159
	c0.153,0.104,0.334,0.224,0.541,0.352c0.208,0.129,0.452,0.246,0.735,0.354c0.281,0.104,0.62,0.158,1.015,0.158
	c0.605,0,1.074-0.14,1.407-0.423c0.329-0.279,0.497-0.684,0.497-1.21c0-0.294-0.077-0.535-0.226-0.721
	c-0.15-0.186-0.349-0.342-0.598-0.468c-0.247-0.129-0.528-0.235-0.844-0.321c-0.316-0.088-0.637-0.185-0.964-0.286
	c-0.326-0.104-0.646-0.227-0.963-0.373c-0.315-0.145-0.598-0.334-0.847-0.566c-0.246-0.231-0.444-0.521-0.595-0.871
	c-0.15-0.348-0.227-0.777-0.227-1.288c0-0.406,0.083-0.806,0.249-1.191c0.165-0.388,0.409-0.729,0.727-1.03
	c0.318-0.3,0.709-0.54,1.172-0.721s0.994-0.271,1.588-0.271c0.675,0,1.297,0.104,1.865,0.31c0.567,0.206,1.054,0.496,1.452,0.869
	L-77.735,61.24z"/>
<path fill="#00A99D" d="M-67.001,59.204v1.711h-3.436v9.484h-2.126v-9.484h-3.45v-1.711H-67.001z"/>
<path fill="#00A99D" d="M-56.443,70.399h-1.642c-0.184,0-0.337-0.045-0.453-0.135c-0.119-0.091-0.206-0.202-0.258-0.337
	l-0.854-2.283h-4.73l-0.852,2.283c-0.045,0.119-0.126,0.226-0.251,0.325c-0.123,0.099-0.274,0.146-0.453,0.146h-1.649l4.485-11.195
	h2.17L-56.443,70.399z M-63.835,66.171h3.64l-1.391-3.723c-0.062-0.166-0.131-0.359-0.209-0.586
	c-0.075-0.223-0.149-0.469-0.224-0.731c-0.074,0.263-0.146,0.51-0.218,0.736c-0.07,0.228-0.141,0.425-0.211,0.596L-63.835,66.171z"
	/>
<path fill="#00A99D" d="M-47.488,67.759c0.117,0,0.217,0.044,0.302,0.131l0.837,0.891c-0.463,0.563-1.034,0.995-1.711,1.294
	c-0.677,0.3-1.486,0.449-2.436,0.449c-0.849,0-1.611-0.143-2.285-0.427c-0.677-0.283-1.256-0.679-1.735-1.184
	c-0.479-0.507-0.846-1.11-1.102-1.812c-0.254-0.703-0.384-1.469-0.384-2.301c0-0.842,0.143-1.611,0.428-2.311
	c0.284-0.7,0.683-1.303,1.199-1.809c0.518-0.505,1.136-0.899,1.854-1.182c0.717-0.279,1.512-0.421,2.38-0.421
	c0.848,0,1.588,0.132,2.223,0.398c0.635,0.266,1.178,0.619,1.631,1.058l-0.71,0.968c-0.042,0.061-0.097,0.116-0.163,0.16
	c-0.064,0.049-0.156,0.071-0.271,0.071c-0.123,0-0.246-0.047-0.372-0.138c-0.125-0.094-0.286-0.195-0.479-0.303
	c-0.197-0.108-0.44-0.21-0.74-0.302c-0.298-0.095-0.676-0.142-1.133-0.142c-0.536,0-1.031,0.094-1.482,0.275
	c-0.45,0.185-0.837,0.447-1.159,0.788c-0.324,0.339-0.577,0.755-0.758,1.241c-0.185,0.488-0.273,1.036-0.273,1.646
	c0,0.631,0.089,1.188,0.273,1.68c0.181,0.491,0.428,0.902,0.737,1.238c0.311,0.337,0.677,0.594,1.1,0.771
	c0.42,0.178,0.872,0.267,1.356,0.267c0.29,0,0.552-0.016,0.785-0.047c0.233-0.028,0.451-0.079,0.647-0.146
	c0.2-0.068,0.385-0.153,0.561-0.261c0.177-0.104,0.352-0.235,0.524-0.39c0.056-0.046,0.11-0.085,0.167-0.112
	C-47.619,67.773-47.556,67.759-47.488,67.759z"/>
<path fill="#00A99D" d="M-42.22,63.896h0.496c0.201,0,0.367-0.028,0.498-0.081c0.134-0.055,0.245-0.141,0.34-0.26l3.151-3.91
	c0.132-0.165,0.269-0.28,0.415-0.345c0.144-0.065,0.327-0.097,0.55-0.097h1.83l-3.846,4.652c-0.121,0.145-0.236,0.268-0.346,0.364
	c-0.112,0.099-0.23,0.179-0.355,0.24c0.173,0.063,0.33,0.15,0.467,0.263c0.141,0.113,0.277,0.26,0.408,0.436l3.966,5.24h-1.881
	c-0.253,0-0.438-0.034-0.565-0.104c-0.122-0.07-0.228-0.172-0.311-0.306l-3.23-4.135c-0.106-0.135-0.225-0.23-0.355-0.29
	s-0.318-0.089-0.561-0.089h-0.671v4.923h-2.124V59.196h2.124V63.896z"/>
<path fill="#00A99D" d="M-111.962,83.384c0,0.82-0.137,1.573-0.409,2.26c-0.274,0.688-0.659,1.279-1.155,1.773
	c-0.495,0.495-1.091,0.881-1.788,1.153c-0.696,0.275-1.469,0.412-2.315,0.412h-4.274V77.786h4.274c0.846,0,1.619,0.139,2.315,0.416
	c0.697,0.275,1.293,0.658,1.788,1.153c0.496,0.491,0.88,1.082,1.155,1.767C-112.099,81.809-111.962,82.563-111.962,83.384z
	 M-114.091,83.384c0-0.614-0.082-1.167-0.247-1.652c-0.166-0.488-0.401-0.902-0.706-1.239c-0.305-0.339-0.674-0.597-1.11-0.777
	c-0.437-0.182-0.928-0.273-1.475-0.273h-2.176v7.884h2.176c0.547,0,1.039-0.091,1.475-0.271c0.436-0.182,0.806-0.44,1.11-0.778
	c0.305-0.339,0.54-0.751,0.706-1.238C-114.173,84.55-114.091,83.999-114.091,83.384z"/>
<path fill="#00A99D" d="M-103.267,77.786v1.656h-4.964v3.106h3.911v1.601h-3.911v3.168h4.964v1.666h-7.062V77.786H-103.267z"/>
<path fill="#00A99D" d="M-102.563,77.786h1.68c0.182,0,0.328,0.044,0.442,0.132c0.113,0.089,0.198,0.2,0.256,0.342l2.632,6.829
	c0.087,0.223,0.171,0.466,0.252,0.73c0.079,0.267,0.154,0.545,0.228,0.84c0.12-0.594,0.266-1.116,0.442-1.57l2.624-6.829
	c0.046-0.12,0.129-0.229,0.249-0.325c0.119-0.099,0.265-0.148,0.44-0.148h1.681l-4.522,11.197h-1.881L-102.563,77.786z"/>
<path fill="#00A99D" d="M-83.409,77.786v1.656h-4.962v3.106h3.91v1.601h-3.91v3.168h4.962v1.666h-7.059V77.786H-83.409z"/>
<path fill="#00A99D" d="M-79.521,87.263h4.48v1.72h-6.564V77.786h2.084V87.263z"/>
<path fill="#00A99D" d="M-63.479,83.384c0,0.82-0.137,1.58-0.411,2.278c-0.271,0.701-0.658,1.306-1.152,1.816
	c-0.497,0.513-1.093,0.909-1.788,1.197c-0.698,0.285-1.471,0.43-2.314,0.43c-0.847,0-1.621-0.145-2.321-0.43
	c-0.697-0.288-1.298-0.685-1.794-1.197c-0.499-0.511-0.885-1.115-1.158-1.816c-0.274-0.698-0.411-1.458-0.411-2.278
	c0-0.821,0.137-1.58,0.411-2.28c0.273-0.699,0.659-1.306,1.158-1.816c0.496-0.511,1.097-0.908,1.794-1.196
	c0.7-0.285,1.475-0.43,2.321-0.43c0.844,0,1.616,0.145,2.314,0.433c0.695,0.29,1.291,0.689,1.788,1.197
	c0.494,0.508,0.881,1.113,1.152,1.813C-63.615,81.804-63.479,82.563-63.479,83.384z M-65.615,83.384
	c0-0.614-0.081-1.167-0.244-1.652c-0.163-0.488-0.396-0.903-0.699-1.245c-0.306-0.339-0.676-0.599-1.112-0.781
	c-0.437-0.181-0.928-0.271-1.474-0.271c-0.549,0-1.043,0.091-1.479,0.271c-0.439,0.183-0.813,0.442-1.121,0.781
	c-0.306,0.342-0.543,0.757-0.706,1.245c-0.168,0.485-0.247,1.038-0.247,1.652s0.079,1.166,0.247,1.653
	c0.163,0.487,0.4,0.899,0.706,1.238c0.309,0.338,0.682,0.597,1.121,0.778c0.437,0.181,0.931,0.271,1.479,0.271
	c0.546,0,1.037-0.091,1.474-0.271c0.437-0.182,0.807-0.44,1.112-0.778c0.303-0.339,0.536-0.751,0.699-1.238
	S-65.615,83.999-65.615,83.384z"/>
<path fill="#00A99D" d="M-59.685,85.041v3.942h-2.081V77.786h3.646c0.748,0,1.396,0.09,1.943,0.264
	c0.547,0.176,0.997,0.421,1.354,0.735c0.357,0.316,0.62,0.691,0.792,1.132c0.17,0.438,0.255,0.917,0.255,1.438
	c0,0.544-0.09,1.04-0.271,1.49c-0.183,0.453-0.452,0.842-0.813,1.167c-0.362,0.324-0.812,0.578-1.354,0.759
	c-0.543,0.18-1.178,0.271-1.904,0.271H-59.685z M-59.685,83.415h1.564c0.383,0,0.717-0.048,0.999-0.145
	c0.281-0.094,0.518-0.231,0.704-0.408c0.186-0.179,0.326-0.395,0.417-0.65c0.095-0.256,0.141-0.54,0.141-0.857
	c0-0.298-0.046-0.568-0.141-0.813c-0.091-0.241-0.231-0.448-0.417-0.618c-0.187-0.171-0.423-0.301-0.704-0.392
	c-0.282-0.092-0.616-0.136-0.999-0.136h-1.564V83.415z"/>
<path fill="#00A99D" d="M-45.097,77.786v1.656h-4.965v3.106h3.91v1.601h-3.91v3.168h4.965v1.666h-7.063V77.786H-45.097z"/>
<path fill="#00A99D" d="M-41.142,84.607v4.376h-2.082V77.786h3.414c0.764,0,1.42,0.079,1.963,0.236
	c0.546,0.156,0.992,0.378,1.339,0.662c0.349,0.284,0.606,0.624,0.768,1.019c0.163,0.395,0.243,0.829,0.243,1.305
	c0,0.376-0.056,0.732-0.166,1.068s-0.272,0.64-0.479,0.914c-0.211,0.273-0.468,0.511-0.776,0.72
	c-0.306,0.206-0.655,0.372-1.049,0.495c0.265,0.15,0.491,0.363,0.683,0.644l2.803,4.135h-1.875c-0.179,0-0.333-0.036-0.459-0.109
	c-0.128-0.072-0.232-0.176-0.321-0.309l-2.354-3.586c-0.086-0.135-0.184-0.23-0.288-0.286c-0.107-0.059-0.263-0.086-0.471-0.086
	H-41.142z M-41.142,83.113h1.303c0.393,0,0.732-0.049,1.024-0.148c0.291-0.097,0.531-0.233,0.721-0.405
	c0.187-0.174,0.327-0.378,0.422-0.615c0.092-0.236,0.14-0.498,0.14-0.781c0-0.567-0.188-1.005-0.562-1.31
	c-0.375-0.304-0.946-0.457-1.716-0.457h-1.332V83.113z"/>
<text transform="matrix(1.02 0 0 1 -691.5356 8.5215)" fill="#685C61" font-family="'LinuxLibertineG'" font-size="78.5769">[</text>
<text transform="matrix(-1.02 0 0 -1 -604.0005 -32.9463)" fill="#685C61" font-family="'LinuxLibertineG'" font-size="78.5769">[</text>
<g>
	<path fill="#5D5D5D" d="M-133.005,52.051V12.291h7.775c0.106,0.133,0.16,0.37,0.16,0.703c0,0.333-0.053,0.568-0.16,0.703
		c-0.885,0-1.602,0.044-2.15,0.131c-0.549,0.087-1.035,0.22-1.461,0.401c-0.423,0.181-0.738,0.365-0.939,0.553
		c-0.204,0.188-0.368,0.485-0.501,0.889c-0.131,0.406-0.209,0.807-0.233,1.206c-0.023,0.396-0.036,0.957-0.036,1.681v27.139
		c0,0.549,0.007,0.986,0.02,1.311c0.01,0.328,0.046,0.67,0.106,1.031c0.06,0.363,0.134,0.635,0.224,0.824s0.228,0.391,0.412,0.609
		c0.186,0.215,0.4,0.373,0.645,0.477c0.245,0.1,0.562,0.209,0.948,0.324c0.39,0.115,0.813,0.203,1.272,0.262
		c0.459,0.057,1.026,0.123,1.694,0.193c0.106,0.129,0.16,0.352,0.16,0.664c0,0.309-0.053,0.531-0.16,0.66H-133.005z"/>
</g>
<g>
	<g>
		<path fill="#00A99D" d="M-24,56.869v35.809h-7.001c-0.096-0.12-0.145-0.333-0.145-0.633c0-0.302,0.049-0.512,0.145-0.634
			c0.795,0,1.441-0.039,1.935-0.117c0.496-0.079,0.934-0.197,1.316-0.361c0.383-0.163,0.665-0.329,0.848-0.499
			c0.181-0.169,0.331-0.437,0.452-0.799c0.116-0.367,0.187-0.729,0.207-1.086c0.022-0.357,0.034-0.862,0.034-1.515V62.592
			c0-0.494-0.006-0.888-0.019-1.181c-0.01-0.296-0.041-0.603-0.096-0.929c-0.055-0.327-0.121-0.572-0.201-0.741
			c-0.08-0.171-0.204-0.353-0.372-0.549c-0.166-0.195-0.358-0.336-0.579-0.431c-0.222-0.09-0.506-0.188-0.854-0.292
			c-0.353-0.104-0.733-0.183-1.146-0.235c-0.414-0.051-0.925-0.11-1.525-0.174c-0.096-0.116-0.145-0.316-0.145-0.598
			c0-0.278,0.049-0.479,0.145-0.595H-24z"/>
	</g>
</g>
<text transform="matrix(-1.02 0 0 -1 25.7471 64.7974)" fill="#00A99D" font-family="'LinuxLibertineG'" font-size="35.72">[</text>
<g>
	<g>
		<path fill="#00A99D" d="M-160.967,26.579h0.392c0.158,0,0.289-0.021,0.394-0.063c0.103-0.044,0.193-0.111,0.268-0.206l2.484-3.082
			c0.104-0.131,0.213-0.222,0.328-0.272c0.113-0.051,0.258-0.076,0.432-0.076h1.445l-3.033,3.67
			c-0.096,0.113-0.186,0.209-0.274,0.287c-0.086,0.077-0.18,0.141-0.28,0.188c0.138,0.05,0.261,0.118,0.371,0.208
			s0.217,0.203,0.32,0.342l3.127,4.135h-1.482c-0.199,0-0.347-0.027-0.444-0.083c-0.099-0.055-0.181-0.135-0.247-0.241l-2.547-3.261
			c-0.083-0.106-0.177-0.183-0.28-0.229c-0.104-0.047-0.252-0.069-0.442-0.069h-0.529v3.884h-1.676v-8.837h1.676V26.579z"/>
		<path fill="#00A99D" d="M-154.576,22.879h1.407c0.146,0,0.267,0.033,0.365,0.101c0.097,0.067,0.162,0.157,0.195,0.272l1.532,5.281
			c0.037,0.13,0.071,0.272,0.103,0.425c0.031,0.153,0.061,0.314,0.091,0.485c0.032-0.171,0.069-0.332,0.109-0.485
			c0.038-0.152,0.081-0.295,0.127-0.425l1.77-5.281c0.032-0.095,0.099-0.18,0.196-0.258c0.097-0.077,0.217-0.115,0.357-0.115h0.492
			c0.146,0,0.266,0.033,0.361,0.101s0.162,0.157,0.199,0.272l1.757,5.281c0.091,0.261,0.17,0.55,0.236,0.867
			c0.029-0.158,0.059-0.312,0.09-0.458s0.063-0.282,0.097-0.409l1.533-5.281c0.028-0.102,0.093-0.19,0.191-0.263
			c0.101-0.074,0.221-0.11,0.362-0.11h1.314l-2.798,8.83H-146l-1.968-6.033c-0.025-0.078-0.052-0.161-0.078-0.25
			c-0.027-0.09-0.053-0.186-0.077-0.287c-0.026,0.102-0.052,0.197-0.079,0.287c-0.026,0.089-0.052,0.172-0.077,0.25l-1.987,6.033
			h-1.514L-154.576,22.879z"/>
	</g>
	<g>
		<g>
			<path fill="#685C61" d="M-137.166,12.291v30h-5.866c-0.079-0.101-0.12-0.28-0.12-0.53c0-0.252,0.041-0.43,0.12-0.531
				c0.667,0,1.208-0.033,1.622-0.098c0.415-0.066,0.781-0.166,1.103-0.303s0.558-0.275,0.71-0.42
				c0.152-0.14,0.278-0.363,0.379-0.668c0.096-0.307,0.156-0.609,0.173-0.909c0.019-0.301,0.028-0.723,0.028-1.271V17.086
				c0-0.413-0.005-0.744-0.016-0.988c-0.008-0.248-0.035-0.504-0.08-0.777c-0.045-0.274-0.102-0.48-0.169-0.622
				c-0.066-0.142-0.171-0.295-0.311-0.46c-0.139-0.163-0.301-0.28-0.485-0.361c-0.186-0.075-0.423-0.156-0.715-0.243
				c-0.296-0.087-0.616-0.152-0.96-0.198c-0.348-0.042-0.775-0.092-1.28-0.145c-0.079-0.098-0.12-0.265-0.12-0.502
				c0-0.23,0.041-0.401,0.12-0.499H-137.166z"/>
		</g>
		<g>
			<path fill="#685C61" d="M-167.166,42.291v-30h5.866c0.079,0.101,0.12,0.28,0.12,0.53c0,0.252-0.041,0.43-0.12,0.531
				c-0.667,0-1.208,0.033-1.623,0.099c-0.415,0.065-0.781,0.166-1.103,0.302c-0.321,0.137-0.558,0.276-0.71,0.419
				c-0.151,0.14-0.278,0.364-0.379,0.668c-0.096,0.307-0.156,0.609-0.173,0.909c-0.019,0.301-0.028,0.723-0.028,1.27v20.476
				c0,0.413,0.005,0.744,0.016,0.988c0.008,0.248,0.035,0.504,0.08,0.777c0.045,0.274,0.101,0.48,0.168,0.622
				c0.066,0.142,0.171,0.295,0.312,0.46c0.139,0.163,0.301,0.28,0.485,0.361c0.186,0.074,0.424,0.156,0.715,0.243
				c0.295,0.087,0.616,0.152,0.959,0.198c0.348,0.041,0.775,0.092,1.28,0.145c0.079,0.098,0.12,0.266,0.12,0.502
				c0,0.23-0.041,0.4-0.12,0.499H-167.166z"/>
		</g>
	</g>
</g>
<g>
	<g>
		<path fill="#00A99D" d="M8.07,18.601h0.51c0.206,0,0.376-0.028,0.512-0.083c0.134-0.057,0.252-0.146,0.349-0.269l3.234-4.012
			c0.136-0.17,0.276-0.289,0.427-0.354c0.147-0.066,0.336-0.099,0.562-0.099h1.882l-3.948,4.777
			c-0.124,0.147-0.242,0.272-0.357,0.374c-0.111,0.101-0.233,0.184-0.364,0.246c0.179,0.065,0.339,0.154,0.482,0.271
			c0.144,0.117,0.282,0.265,0.418,0.445l4.07,5.382h-1.931c-0.259,0-0.452-0.036-0.578-0.108c-0.129-0.071-0.235-0.176-0.322-0.314
			l-3.315-4.245c-0.106-0.139-0.229-0.238-0.364-0.299c-0.136-0.061-0.328-0.09-0.576-0.09H8.07v5.056H5.889V13.775H8.07V18.601z"/>
		<path fill="#00A99D" d="M16.39,13.784h1.831c0.189,0,0.348,0.043,0.476,0.131c0.127,0.087,0.212,0.205,0.254,0.355l1.995,6.875
			c0.049,0.169,0.093,0.355,0.134,0.553c0.04,0.2,0.079,0.41,0.118,0.632c0.042-0.222,0.09-0.432,0.143-0.632
			c0.049-0.198,0.104-0.384,0.165-0.553l2.303-6.875c0.043-0.124,0.129-0.234,0.257-0.335c0.125-0.101,0.281-0.15,0.464-0.15h0.641
			c0.19,0,0.347,0.043,0.471,0.131c0.125,0.087,0.212,0.205,0.259,0.355l2.288,6.875c0.118,0.339,0.221,0.716,0.308,1.129
			c0.038-0.206,0.075-0.406,0.117-0.597c0.04-0.191,0.083-0.367,0.125-0.533l1.996-6.875c0.038-0.132,0.121-0.248,0.249-0.342
			c0.132-0.097,0.288-0.144,0.473-0.144h1.71l-3.642,11.495h-1.969l-2.563-7.854c-0.032-0.102-0.067-0.21-0.101-0.326
			c-0.036-0.117-0.069-0.242-0.101-0.374c-0.034,0.132-0.067,0.256-0.104,0.374c-0.034,0.116-0.067,0.224-0.101,0.326l-2.587,7.854
			h-1.97L16.39,13.784z"/>
	</g>
	<g>
		<g>
			<path fill="#685C61" d="M39.054,0v39.053h-7.637c-0.102-0.131-0.154-0.365-0.154-0.69c0-0.328,0.053-0.559,0.154-0.691
				c0.869,0,1.573-0.043,2.113-0.127c0.538-0.086,1.016-0.216,1.433-0.394c0.42-0.178,0.728-0.359,0.926-0.547
				c0.197-0.182,0.361-0.473,0.494-0.87c0.125-0.399,0.203-0.793,0.225-1.183c0.024-0.392,0.036-0.942,0.036-1.654V6.243
				c0-0.538-0.008-0.968-0.02-1.286c-0.01-0.323-0.046-0.657-0.104-1.012c-0.059-0.357-0.133-0.625-0.219-0.81
				s-0.224-0.384-0.405-0.599c-0.182-0.212-0.393-0.365-0.632-0.47c-0.241-0.097-0.552-0.204-0.931-0.317
				c-0.386-0.114-0.802-0.198-1.25-0.257c-0.452-0.054-1.008-0.12-1.666-0.189c-0.102-0.127-0.154-0.345-0.154-0.653
				c0-0.3,0.053-0.522,0.154-0.649H39.054z"/>
		</g>
		<g>
			<path fill="#685C61" d="M0,39.053V0h7.637C7.74,0.131,7.791,0.365,7.791,0.69c0,0.328-0.051,0.559-0.154,0.691
				c-0.868,0-1.574,0.043-2.113,0.128C4.984,1.595,4.508,1.725,4.09,1.903C3.671,2.082,3.363,2.262,3.164,2.449
				c-0.195,0.182-0.36,0.474-0.493,0.87C2.547,3.718,2.467,4.112,2.445,4.502C2.422,4.894,2.409,5.444,2.409,6.155V32.81
				c0,0.538,0.008,0.968,0.021,1.286c0.01,0.323,0.046,0.657,0.104,1.012c0.059,0.357,0.133,0.625,0.219,0.81
				c0.087,0.185,0.224,0.384,0.407,0.599c0.18,0.212,0.392,0.365,0.631,0.47c0.241,0.097,0.552,0.204,0.93,0.317
				c0.386,0.113,0.802,0.198,1.251,0.258c0.451,0.053,1.007,0.12,1.666,0.188c0.104,0.127,0.154,0.345,0.154,0.653
				c0,0.3-0.051,0.521-0.154,0.649H0z"/>
		</g>
	</g>
</g>
<g>
	<path fill="#685C61" stroke="#685C61" stroke-width="0.5833" stroke-miterlimit="10" d="M53,3.281h1.42v5.306h0.049
		c0.295-0.424,0.588-0.816,0.865-1.175l3.363-4.131h1.764L56.479,7.95l4.293,6.335H59.09l-3.625-5.404l-1.045,1.208v4.196H53V3.281z
		"/>
	<path fill="#685C61" stroke="#685C61" stroke-width="0.5833" stroke-miterlimit="10" d="M62.604,10.595
		c0.031,1.943,1.273,2.743,2.709,2.743c1.029,0,1.65-0.18,2.188-0.408l0.246,1.028c-0.506,0.229-1.371,0.49-2.629,0.49
		c-2.434,0-3.887-1.6-3.887-3.983c0-2.384,1.404-4.262,3.707-4.262c2.58,0,3.266,2.27,3.266,3.723c0,0.294-0.033,0.522-0.049,0.669
		H62.604z M66.814,9.567c0.018-0.915-0.375-2.335-1.992-2.335c-1.453,0-2.09,1.339-2.203,2.335H66.814z"/>
	<path fill="#685C61" stroke="#685C61" stroke-width="0.5833" stroke-miterlimit="10" d="M69.984,8.848
		c0-0.931-0.016-1.73-0.064-2.465h1.258l0.049,1.551h0.064c0.359-1.062,1.225-1.731,2.188-1.731c0.164,0,0.279,0.017,0.408,0.049
		v1.355c-0.146-0.033-0.293-0.049-0.488-0.049c-1.014,0-1.73,0.767-1.928,1.845c-0.033,0.196-0.064,0.425-0.064,0.669v4.212h-1.422
		V8.848z"/>
	<path fill="#685C61" stroke="#685C61" stroke-width="0.5833" stroke-miterlimit="10" d="M75.963,10.595
		c0.033,1.943,1.273,2.743,2.711,2.743c1.027,0,1.648-0.18,2.188-0.408l0.244,1.028c-0.506,0.229-1.371,0.49-2.629,0.49
		c-2.432,0-3.885-1.6-3.885-3.983c0-2.384,1.404-4.262,3.705-4.262c2.58,0,3.266,2.27,3.266,3.723c0,0.294-0.031,0.522-0.049,0.669
		H75.963z M80.176,9.567c0.016-0.915-0.375-2.335-1.992-2.335c-1.453,0-2.09,1.339-2.205,2.335H80.176z"/>
	<path fill="#685C61" stroke="#685C61" stroke-width="0.5833" stroke-miterlimit="10" d="M83.344,8.522
		c0-0.816-0.016-1.486-0.064-2.139h1.273l0.082,1.306h0.033c0.391-0.751,1.305-1.486,2.611-1.486c1.094,0,2.793,0.653,2.793,3.364
		v4.718h-1.438V9.73c0-1.273-0.473-2.335-1.828-2.335c-0.947,0-1.682,0.669-1.928,1.47c-0.064,0.18-0.098,0.424-0.098,0.669v4.751
		h-1.438V8.522z"/>
	<path fill="#685C61" stroke="#685C61" stroke-width="0.5833" stroke-miterlimit="10" d="M97.129,14.285L94.336,3.281h1.502
		l1.307,5.567c0.326,1.372,0.621,2.743,0.816,3.804h0.033c0.18-1.094,0.521-2.4,0.896-3.82l1.471-5.551h1.484l1.34,5.584
		c0.311,1.306,0.604,2.612,0.768,3.771h0.033c0.229-1.208,0.537-2.433,0.881-3.804l1.453-5.551h1.453l-3.119,11.004h-1.484
		l-1.389-5.731c-0.344-1.404-0.572-2.481-0.719-3.592h-0.033c-0.195,1.094-0.439,2.171-0.848,3.592l-1.568,5.731H97.129z"/>
	<path fill="#685C61" stroke="#685C61" stroke-width="0.5833" stroke-miterlimit="10" d="M110.439,4.163
		c0.016,0.49-0.344,0.881-0.914,0.881c-0.508,0-0.865-0.392-0.865-0.881c0-0.506,0.375-0.898,0.896-0.898
		C110.096,3.265,110.439,3.656,110.439,4.163z M108.838,14.285V6.383h1.438v7.902H108.838z"/>
	<path fill="#685C61" stroke="#685C61" stroke-width="0.5833" stroke-miterlimit="10" d="M119.469,6.383
		c-0.031,0.572-0.064,1.208-0.064,2.171v4.588c0,1.813-0.359,2.923-1.127,3.608c-0.768,0.718-1.877,0.947-2.873,0.947
		c-0.947,0-1.992-0.229-2.629-0.653l0.359-1.094c0.521,0.326,1.338,0.62,2.318,0.62c1.469,0,2.547-0.767,2.547-2.759V12.93h-0.033
		c-0.439,0.734-1.289,1.322-2.514,1.322c-1.959,0-3.363-1.665-3.363-3.853c0-2.678,1.746-4.196,3.559-4.196
		c1.371,0,2.123,0.719,2.467,1.372h0.031l0.066-1.192H119.469z M117.984,9.501c0-0.245-0.018-0.457-0.082-0.653
		c-0.262-0.833-0.963-1.518-2.008-1.518c-1.373,0-2.352,1.159-2.352,2.988c0,1.551,0.783,2.841,2.334,2.841
		c0.883,0,1.682-0.555,1.992-1.47c0.082-0.245,0.115-0.522,0.115-0.767V9.501z"/>
	<path fill="#685C61" stroke="#685C61" stroke-width="0.5833" stroke-miterlimit="10" d="M122.59,10.595
		c0.033,1.943,1.273,2.743,2.711,2.743c1.027,0,1.648-0.18,2.188-0.408l0.244,1.028c-0.506,0.229-1.371,0.49-2.629,0.49
		c-2.432,0-3.885-1.6-3.885-3.983c0-2.384,1.404-4.262,3.705-4.262c2.58,0,3.266,2.27,3.266,3.723c0,0.294-0.031,0.522-0.049,0.669
		H122.59z M126.803,9.567c0.016-0.915-0.375-2.335-1.992-2.335c-1.453,0-2.09,1.339-2.205,2.335H126.803z"/>
	<path fill="#685C61" stroke="#685C61" stroke-width="0.5833" stroke-miterlimit="10" d="M129.973,2.693h1.438v11.592h-1.438V2.693z
		"/>
	<path fill="#685C61" stroke="#685C61" stroke-width="0.5833" stroke-miterlimit="10" d="M133.826,8.522
		c0-0.816-0.016-1.486-0.064-2.139h1.258l0.064,1.273h0.049c0.441-0.751,1.176-1.453,2.482-1.453c1.078,0,1.895,0.653,2.236,1.584
		h0.033c0.244-0.441,0.555-0.784,0.881-1.029c0.475-0.359,0.996-0.555,1.748-0.555c1.045,0,2.596,0.686,2.596,3.429v4.653h-1.404
		V9.812c0-1.519-0.555-2.433-1.715-2.433c-0.816,0-1.453,0.604-1.697,1.306c-0.066,0.196-0.115,0.457-0.115,0.718v4.882h-1.404V9.55
		c0-1.257-0.555-2.171-1.648-2.171c-0.898,0-1.551,0.718-1.779,1.437c-0.082,0.212-0.115,0.458-0.115,0.702v4.768h-1.404V8.522z"/>
	<path fill="#685C61" stroke="#685C61" stroke-width="0.5833" stroke-miterlimit="10" d="M151.824,14.285l-0.115-0.996h-0.049
		c-0.439,0.621-1.289,1.176-2.416,1.176c-1.6,0-2.416-1.126-2.416-2.27c0-1.91,1.697-2.955,4.75-2.939V9.093
		c0-0.653-0.18-1.829-1.795-1.829c-0.734,0-1.502,0.229-2.057,0.588l-0.328-0.947c0.654-0.424,1.602-0.702,2.598-0.702
		c2.416,0,3.004,1.649,3.004,3.233v2.955c0,0.686,0.031,1.355,0.131,1.894H151.824z M151.611,10.252
		c-1.566-0.033-3.348,0.245-3.348,1.78c0,0.931,0.621,1.371,1.355,1.371c1.029,0,1.682-0.653,1.91-1.322
		c0.049-0.147,0.082-0.31,0.082-0.457V10.252z"/>
	<path fill="#685C61" stroke="#685C61" stroke-width="0.5833" stroke-miterlimit="10" d="M155.318,8.522
		c0-0.816-0.016-1.486-0.064-2.139h1.273l0.082,1.306h0.033c0.391-0.751,1.305-1.486,2.611-1.486c1.094,0,2.793,0.653,2.793,3.364
		v4.718h-1.438V9.73c0-1.273-0.473-2.335-1.828-2.335c-0.947,0-1.682,0.669-1.928,1.47c-0.064,0.18-0.098,0.424-0.098,0.669v4.751
		h-1.438V8.522z"/>
	<path fill="#685C61" d="M53,22.879h5.928v1.192H54.42v3.657h4.164v1.176H54.42v4.979H53V22.879z"/>
	<path fill="#685C61" d="M66.945,31.729c0,0.816,0.016,1.535,0.064,2.155h-1.273l-0.08-1.29h-0.033
		c-0.375,0.637-1.209,1.47-2.613,1.47c-1.24,0-2.727-0.686-2.727-3.461v-4.621h1.438v4.375c0,1.502,0.457,2.515,1.764,2.515
		c0.963,0,1.633-0.669,1.895-1.306c0.08-0.212,0.129-0.474,0.129-0.735v-4.849h1.438V31.729z"/>
	<path fill="#685C61" d="M69.332,22.292h1.438v11.592h-1.438V22.292z"/>
	<path fill="#685C61" d="M73.186,22.292h1.438v11.592h-1.438V22.292z"/>
	<path fill="#685C61" d="M76.895,32.153c0.637,0.392,1.566,0.718,2.547,0.718c1.453,0,2.301-0.768,2.301-1.877
		c0-1.029-0.586-1.617-2.072-2.188c-1.797-0.637-2.906-1.567-2.906-3.119c0-1.714,1.42-2.988,3.559-2.988
		c1.127,0,1.943,0.261,2.434,0.539l-0.393,1.159c-0.359-0.196-1.094-0.522-2.09-0.522c-1.502,0-2.072,0.898-2.072,1.649
		c0,1.029,0.668,1.535,2.188,2.123c1.861,0.718,2.807,1.616,2.807,3.232c0,1.698-1.256,3.167-3.852,3.167
		c-1.063,0-2.221-0.31-2.809-0.702L76.895,32.153z"/>
	<path fill="#685C61" d="M86.775,23.712v2.27h2.057v1.094h-2.057v4.261c0,0.979,0.277,1.535,1.076,1.535
		c0.377,0,0.654-0.049,0.834-0.098l0.064,1.078c-0.277,0.114-0.719,0.196-1.273,0.196c-0.67,0-1.209-0.212-1.551-0.604
		c-0.408-0.424-0.555-1.126-0.555-2.057v-4.31h-1.225v-1.094h1.225v-1.894L86.775,23.712z"/>
	<path fill="#685C61" d="M94.824,33.884l-0.113-0.996h-0.049c-0.441,0.621-1.291,1.176-2.416,1.176c-1.602,0-2.418-1.126-2.418-2.27
		c0-1.91,1.699-2.955,4.752-2.939v-0.163c0-0.653-0.18-1.829-1.797-1.829c-0.734,0-1.502,0.229-2.057,0.588L90.4,26.504
		c0.652-0.424,1.6-0.702,2.596-0.702c2.416,0,3.004,1.649,3.004,3.233v2.955c0,0.686,0.033,1.355,0.131,1.894H94.824z
		 M94.613,29.851c-1.568-0.033-3.348,0.245-3.348,1.78c0,0.931,0.621,1.371,1.355,1.371c1.027,0,1.682-0.653,1.91-1.322
		c0.049-0.147,0.082-0.31,0.082-0.457V29.851z"/>
	<path fill="#685C61" d="M103.953,33.59c-0.375,0.196-1.207,0.457-2.268,0.457c-2.385,0-3.936-1.616-3.936-4.033
		c0-2.433,1.666-4.196,4.244-4.196c0.85,0,1.602,0.212,1.992,0.408l-0.326,1.11c-0.344-0.196-0.881-0.375-1.666-0.375
		c-1.813,0-2.791,1.338-2.791,2.988c0,1.829,1.176,2.955,2.742,2.955c0.816,0,1.355-0.212,1.764-0.392L103.953,33.59z"/>
	<path fill="#685C61" d="M107.059,29.606h0.033c0.195-0.277,0.473-0.62,0.701-0.898l2.318-2.727h1.732l-3.055,3.249l3.479,4.653
		h-1.748l-2.727-3.788l-0.734,0.816v2.972h-1.42V22.292h1.42V29.606z"/>
	<path fill="#685C61" d="M116.809,23.026c0.865-0.13,1.895-0.229,3.021-0.229c2.039,0,3.492,0.474,4.457,1.372
		c0.979,0.898,1.551,2.171,1.551,3.951c0,1.796-0.555,3.265-1.584,4.277c-1.029,1.029-2.727,1.584-4.865,1.584
		c-1.012,0-1.861-0.049-2.58-0.131V23.026z M118.229,32.757c0.359,0.065,0.883,0.082,1.438,0.082c3.037,0,4.686-1.698,4.686-4.669
		c0.016-2.596-1.453-4.245-4.457-4.245c-0.734,0-1.289,0.065-1.666,0.147V32.757z"/>
	<path fill="#685C61" d="M128.502,30.194c0.033,1.943,1.273,2.743,2.711,2.743c1.027,0,1.648-0.18,2.188-0.408l0.244,1.028
		c-0.506,0.229-1.371,0.49-2.629,0.49c-2.432,0-3.885-1.6-3.885-3.983c0-2.384,1.404-4.262,3.705-4.262
		c2.58,0,3.266,2.27,3.266,3.723c0,0.294-0.031,0.522-0.049,0.669H128.502z M132.715,29.166c0.016-0.915-0.375-2.335-1.992-2.335
		c-1.453,0-2.09,1.339-2.205,2.335H132.715z"/>
	<path fill="#685C61" d="M136.439,25.981l1.551,4.441c0.262,0.719,0.475,1.372,0.637,2.024h0.049c0.18-0.653,0.408-1.306,0.67-2.024
		l1.535-4.441h1.502l-3.102,7.902h-1.371l-3.006-7.902H136.439z"/>
	<path fill="#685C61" d="M144.377,30.194c0.033,1.943,1.273,2.743,2.711,2.743c1.027,0,1.648-0.18,2.188-0.408l0.244,1.028
		c-0.506,0.229-1.371,0.49-2.629,0.49c-2.432,0-3.885-1.6-3.885-3.983c0-2.384,1.404-4.262,3.705-4.262
		c2.58,0,3.266,2.27,3.266,3.723c0,0.294-0.031,0.522-0.049,0.669H144.377z M148.59,29.166c0.016-0.915-0.375-2.335-1.992-2.335
		c-1.453,0-2.09,1.339-2.205,2.335H148.59z"/>
	<path fill="#685C61" d="M151.76,22.292h1.438v11.592h-1.438V22.292z"/>
	<path fill="#685C61" d="M162.764,29.867c0,2.923-2.023,4.196-3.934,4.196c-2.139,0-3.789-1.567-3.789-4.065
		c0-2.645,1.732-4.196,3.92-4.196C161.23,25.802,162.764,27.451,162.764,29.867z M156.494,29.949c0,1.73,0.996,3.037,2.4,3.037
		c1.371,0,2.4-1.29,2.4-3.069c0-1.339-0.67-3.037-2.367-3.037S156.494,28.447,156.494,29.949z"/>
	<path fill="#685C61" d="M164.58,28.561c0-1.012-0.033-1.829-0.064-2.58h1.289l0.064,1.355h0.033
		c0.588-0.963,1.52-1.535,2.809-1.535c1.91,0,3.348,1.617,3.348,4.017c0,2.841-1.732,4.245-3.592,4.245
		c-1.045,0-1.961-0.457-2.434-1.241H166v4.294h-1.42V28.561z M166,30.667c0,0.212,0.033,0.408,0.066,0.588
		c0.26,0.996,1.125,1.682,2.154,1.682c1.52,0,2.4-1.241,2.4-3.053c0-1.584-0.832-2.939-2.352-2.939c-0.979,0-1.893,0.702-2.172,1.78
		c-0.049,0.18-0.098,0.392-0.098,0.587V30.667z"/>
	<path fill="#685C61" d="M174.674,30.194c0.031,1.943,1.273,2.743,2.709,2.743c1.029,0,1.65-0.18,2.188-0.408l0.246,1.028
		c-0.506,0.229-1.371,0.49-2.629,0.49c-2.434,0-3.887-1.6-3.887-3.983c0-2.384,1.404-4.262,3.707-4.262
		c2.58,0,3.266,2.27,3.266,3.723c0,0.294-0.033,0.522-0.049,0.669H174.674z M178.885,29.166c0.018-0.915-0.375-2.335-1.992-2.335
		c-1.453,0-2.09,1.339-2.203,2.335H178.885z"/>
	<path fill="#685C61" d="M182.055,28.447c0-0.931-0.016-1.73-0.064-2.465h1.256l0.049,1.551h0.066
		c0.359-1.062,1.225-1.731,2.188-1.731c0.162,0,0.277,0.017,0.408,0.049v1.355c-0.146-0.033-0.295-0.049-0.49-0.049
		c-1.012,0-1.73,0.767-1.926,1.845c-0.033,0.196-0.066,0.425-0.066,0.669v4.212h-1.42V28.447z"/>
</g>
<text transform="matrix(1 0 0 1 51.7598 -32.9463)"><tspan x="0" y="0" fill="#685C61" stroke="#685C61" stroke-width="0.5833" stroke-miterlimit="10" font-family="'MyriadPro-Regular'" font-size="16.3321">Keren Wigelman</tspan><tspan x="0" y="19.599" fill="#685C61" font-family="'MyriadPro-Regular'" font-size="16.3321">FullStack Developer</tspan></text>
</svg>
