<?xml version="1.0" encoding="utf-8"?>
<!-- Generator: Adobe Illustrator 16.0.0, SVG Export Plug-In . SVG Version: 6.00 Build 0)  -->
<!DOCTYPE svg PUBLIC "-//W3C//DTD SVG 1.1//EN" "http://www.w3.org/Graphics/SVG/1.1/DTD/svg11.dtd">
<svg version="1.1" id="Layer_1" xmlns="http://www.w3.org/2000/svg" xmlns:xlink="http://www.w3.org/1999/xlink" x="0px" y="0px"
	 width="163.052px" height="76.125px" viewBox="0 0 163.052 76.125" enable-background="new 0 0 163.052 76.125"
	 xml:space="preserve">
<g>
	<g>
		<g>
			<g>
				<path fill="#00A99D" d="M56.452,69.382c0,0.989-0.165,1.895-0.494,2.721c-0.329,0.828-0.792,1.54-1.39,2.137
					c-0.596,0.598-1.314,1.06-2.154,1.39c-0.839,0.332-1.768,0.496-2.787,0.496h-5.148V62.641h5.148
					c1.019,0,1.948,0.166,2.787,0.499c0.84,0.332,1.559,0.794,2.154,1.389c0.598,0.592,1.061,1.304,1.39,2.129
					C56.287,67.486,56.452,68.392,56.452,69.382z M53.887,69.382c0-0.74-0.099-1.402-0.299-1.989
					c-0.198-0.59-0.481-1.088-0.849-1.493c-0.366-0.407-0.812-0.72-1.338-0.938c-0.524-0.218-1.117-0.327-1.775-0.327h-2.622v9.493
					h2.622c0.658,0,1.251-0.109,1.775-0.324c0.526-0.219,0.972-0.533,1.338-0.938c0.367-0.41,0.65-0.906,0.849-1.493
					C53.789,70.783,53.887,70.121,53.887,69.382z"/>
				<path fill="#00A99D" d="M66.924,62.641v1.994h-5.979v3.739h4.71v1.932h-4.71v3.814h5.979v2.005h-8.505V62.641H66.924z"/>
				<path fill="#00A99D" d="M67.772,62.641h2.022c0.219,0,0.396,0.052,0.533,0.158c0.137,0.104,0.238,0.242,0.309,0.41l3.17,8.227
					c0.105,0.265,0.205,0.561,0.303,0.877c0.095,0.322,0.188,0.66,0.275,1.013c0.143-0.714,0.319-1.345,0.531-1.89l3.161-8.227
					c0.056-0.143,0.155-0.274,0.299-0.392c0.143-0.117,0.319-0.177,0.53-0.177h2.024l-5.446,13.484h-2.267L67.772,62.641z"/>
				<path fill="#00A99D" d="M90.842,62.641v1.994h-5.977v3.739h4.708v1.932h-4.708v3.814h5.977v2.005h-8.505V62.641H90.842z"/>
				<path fill="#00A99D" d="M95.524,74.053h5.399v2.072h-7.907V62.641h2.508V74.053z"/>
				<path fill="#00A99D" d="M114.846,69.382c0,0.989-0.166,1.902-0.494,2.747c-0.33,0.841-0.794,1.57-1.39,2.186
					c-0.597,0.616-1.316,1.096-2.153,1.441c-0.841,0.346-1.77,0.517-2.789,0.517c-1.021,0-1.951-0.171-2.794-0.517
					s-1.563-0.825-2.163-1.441c-0.6-0.615-1.064-1.345-1.395-2.186c-0.328-0.845-0.493-1.758-0.493-2.747
					c0-0.99,0.165-1.903,0.493-2.748c0.33-0.841,0.795-1.57,1.395-2.186s1.32-1.096,2.163-1.438c0.843-0.346,1.773-0.52,2.794-0.52
					c1.02,0,1.948,0.174,2.789,0.521c0.837,0.349,1.557,0.829,2.153,1.441c0.596,0.612,1.06,1.34,1.39,2.181
					C114.68,67.479,114.846,68.392,114.846,69.382z M112.272,69.382c0-0.74-0.099-1.402-0.295-1.989
					c-0.194-0.59-0.477-1.088-0.843-1.498c-0.367-0.41-0.813-0.725-1.338-0.942c-0.526-0.219-1.118-0.328-1.776-0.328
					c-0.659,0-1.253,0.109-1.781,0.328c-0.528,0.218-0.978,0.532-1.348,0.942s-0.654,0.908-0.854,1.498
					c-0.197,0.587-0.297,1.249-0.297,1.989c0,0.739,0.1,1.401,0.297,1.991c0.2,0.587,0.484,1.083,0.854,1.493
					c0.37,0.404,0.819,0.719,1.348,0.938c0.528,0.215,1.122,0.324,1.781,0.324c0.658,0,1.25-0.109,1.776-0.324
					c0.524-0.219,0.971-0.533,1.338-0.938c0.366-0.41,0.648-0.906,0.843-1.493C112.173,70.783,112.272,70.121,112.272,69.382z"/>
				<path fill="#00A99D" d="M119.415,71.376v4.749h-2.508V62.641h4.392c0.902,0,1.682,0.104,2.341,0.317
					c0.658,0.21,1.202,0.506,1.632,0.885c0.429,0.379,0.746,0.831,0.951,1.36c0.205,0.53,0.309,1.106,0.309,1.735
					c0,0.654-0.109,1.251-0.327,1.794c-0.218,0.545-0.543,1.013-0.979,1.404c-0.436,0.393-0.979,0.696-1.632,0.914
					c-0.653,0.216-1.418,0.325-2.295,0.325H119.415z M119.415,69.418h1.884c0.46,0,0.861-0.058,1.204-0.172
					c0.341-0.114,0.623-0.28,0.848-0.493c0.224-0.216,0.392-0.475,0.504-0.784c0.112-0.309,0.167-0.651,0.167-1.03
					c0-0.361-0.055-0.686-0.167-0.979c-0.112-0.291-0.28-0.54-0.504-0.745c-0.225-0.205-0.507-0.363-0.848-0.473
					c-0.343-0.109-0.744-0.161-1.204-0.161h-1.884V69.418z"/>
				<path fill="#00A99D" d="M136.983,62.641v1.994h-5.977v3.739h4.708v1.932h-4.708v3.814h5.977v2.005h-8.505V62.641H136.983z"/>
				<path fill="#00A99D" d="M141.75,70.856v5.269h-2.509V62.641h4.112c0.92,0,1.707,0.094,2.363,0.283s1.193,0.454,1.613,0.797
					s0.727,0.753,0.923,1.229c0.196,0.475,0.295,0.997,0.295,1.57c0,0.455-0.066,0.881-0.202,1.286
					c-0.132,0.404-0.325,0.771-0.577,1.101s-0.563,0.618-0.933,0.867c-0.369,0.247-0.792,0.446-1.264,0.598
					c0.316,0.179,0.59,0.436,0.82,0.773l3.377,4.98h-2.258c-0.217,0-0.401-0.045-0.555-0.13c-0.152-0.089-0.281-0.213-0.387-0.374
					l-2.836-4.318c-0.104-0.161-0.222-0.277-0.348-0.346c-0.13-0.067-0.316-0.101-0.564-0.101H141.75z M141.75,69.057h1.565
					c0.474,0,0.886-0.06,1.236-0.179c0.351-0.117,0.64-0.28,0.867-0.488c0.227-0.211,0.396-0.457,0.507-0.743
					c0.113-0.285,0.169-0.6,0.169-0.939c0-0.686-0.226-1.21-0.676-1.579c-0.451-0.366-1.139-0.548-2.065-0.548h-1.604V69.057z"/>
			</g>
			<g>
				<path fill="#00A99D" d="M58.4,41.474v1.997h-5.977v3.99h5.045v2.005h-5.045v5.494h-2.527V41.474H58.4z"/>
				<path fill="#00A99D" d="M65.796,52.935c0.484,0,0.918-0.08,1.301-0.241c0.382-0.161,0.705-0.39,0.969-0.681
					c0.265-0.293,0.466-0.646,0.606-1.064c0.14-0.415,0.21-0.883,0.21-1.399v-8.075h2.508v8.075c0,0.803-0.128,1.545-0.387,2.226
					c-0.258,0.68-0.63,1.27-1.115,1.763c-0.484,0.493-1.072,0.878-1.762,1.155c-0.689,0.275-1.467,0.416-2.33,0.416
					c-0.866,0-1.643-0.141-2.332-0.416c-0.689-0.277-1.276-0.662-1.758-1.155s-0.852-1.083-1.109-1.763
					c-0.258-0.681-0.388-1.423-0.388-2.226v-8.075h2.509v8.067c0,0.517,0.07,0.981,0.209,1.399c0.14,0.416,0.342,0.771,0.603,1.064
					c0.262,0.299,0.583,0.527,0.964,0.688C64.877,52.854,65.311,52.935,65.796,52.935z"/>
				<path fill="#00A99D" d="M76.454,52.888h5.399v2.072h-7.909V41.474h2.51V52.888z"/>
				<path fill="#00A99D" d="M86.096,52.888h5.399v2.072h-7.908V41.474h2.509V52.888z"/>
				<path fill="#00A99D" d="M100.457,43.928c-0.067,0.138-0.146,0.23-0.238,0.288c-0.089,0.057-0.197,0.086-0.32,0.086
					c-0.125,0-0.265-0.05-0.421-0.146c-0.155-0.099-0.339-0.205-0.55-0.322c-0.211-0.119-0.459-0.226-0.741-0.322
					c-0.282-0.096-0.617-0.146-1.003-0.146c-0.347,0-0.65,0.042-0.908,0.128c-0.259,0.083-0.476,0.199-0.653,0.348
					c-0.177,0.15-0.31,0.33-0.396,0.537c-0.087,0.208-0.131,0.437-0.131,0.686c0,0.317,0.09,0.582,0.267,0.792
					c0.178,0.213,0.411,0.393,0.705,0.543c0.29,0.147,0.624,0.28,0.997,0.399c0.372,0.12,0.753,0.244,1.142,0.38
					c0.389,0.132,0.771,0.288,1.142,0.465c0.373,0.176,0.706,0.399,1,0.672c0.29,0.268,0.525,0.6,0.703,0.992
					c0.177,0.392,0.265,0.867,0.265,1.428c0,0.607-0.104,1.179-0.312,1.711c-0.209,0.53-0.514,0.995-0.915,1.39
					c-0.399,0.395-0.889,0.706-1.468,0.932c-0.578,0.227-1.24,0.341-1.985,0.341c-0.43,0-0.852-0.042-1.269-0.128
					c-0.417-0.083-0.816-0.202-1.198-0.357c-0.383-0.156-0.74-0.341-1.072-0.559c-0.334-0.218-0.63-0.46-0.891-0.728l0.727-1.204
					c0.069-0.086,0.151-0.161,0.247-0.219c0.098-0.06,0.204-0.088,0.322-0.088c0.155,0,0.323,0.063,0.505,0.189
					c0.179,0.13,0.392,0.271,0.637,0.426c0.246,0.156,0.535,0.296,0.869,0.423c0.331,0.128,0.73,0.192,1.195,0.192
					c0.716,0,1.269-0.171,1.661-0.509c0.394-0.34,0.588-0.825,0.588-1.459c0-0.354-0.089-0.645-0.267-0.867
					c-0.176-0.224-0.411-0.413-0.703-0.563c-0.292-0.153-0.625-0.283-0.998-0.387c-0.373-0.106-0.752-0.221-1.138-0.346
					s-0.765-0.275-1.139-0.449c-0.371-0.174-0.705-0.399-0.996-0.681c-0.293-0.277-0.526-0.628-0.705-1.049
					c-0.176-0.418-0.266-0.938-0.266-1.553c0-0.49,0.099-0.969,0.293-1.436c0.197-0.465,0.483-0.881,0.858-1.241
					c0.377-0.358,0.838-0.649,1.384-0.864c0.548-0.219,1.174-0.328,1.875-0.328c0.797,0,1.53,0.125,2.202,0.372
					c0.672,0.249,1.242,0.597,1.716,1.046L100.457,43.928z"/>
				<path fill="#00A99D" d="M112.738,41.474v2.062h-4.057V54.96h-2.507V43.535h-4.077v-2.062H112.738z"/>
				<path fill="#00A99D" d="M124.814,54.96h-1.939c-0.218,0-0.396-0.057-0.537-0.163c-0.139-0.109-0.24-0.247-0.303-0.405
					l-1.007-2.752h-5.587l-1.006,2.752c-0.05,0.143-0.148,0.272-0.294,0.39c-0.146,0.119-0.324,0.179-0.537,0.179h-1.947
					l5.297-13.486h2.563L124.814,54.96z M116.084,49.866h4.3l-1.642-4.484c-0.074-0.197-0.156-0.434-0.247-0.704
					c-0.09-0.27-0.179-0.563-0.265-0.88c-0.088,0.316-0.174,0.61-0.257,0.885c-0.083,0.273-0.166,0.512-0.248,0.717L116.084,49.866z
					"/>
				<path fill="#00A99D" d="M134.999,51.779c0.136,0,0.253,0.052,0.353,0.158l0.988,1.072c-0.547,0.678-1.219,1.197-2.019,1.556
					c-0.799,0.361-1.757,0.543-2.876,0.543c-1.001,0-1.902-0.172-2.7-0.515c-0.8-0.34-1.481-0.815-2.046-1.425
					c-0.566-0.61-1-1.338-1.302-2.185c-0.301-0.844-0.451-1.768-0.451-2.768c0-1.013,0.167-1.942,0.502-2.783
					c0.335-0.844,0.81-1.568,1.418-2.179c0.609-0.607,1.339-1.083,2.188-1.423c0.848-0.338,1.785-0.507,2.811-0.507
					c1.001,0,1.875,0.159,2.624,0.48c0.749,0.319,1.392,0.745,1.927,1.272l-0.839,1.166c-0.051,0.073-0.114,0.141-0.192,0.194
					c-0.076,0.058-0.184,0.086-0.32,0.086c-0.144,0-0.289-0.057-0.438-0.169c-0.149-0.111-0.339-0.233-0.569-0.363
					s-0.521-0.252-0.872-0.363s-0.797-0.169-1.339-0.169c-0.633,0-1.216,0.111-1.747,0.332c-0.532,0.221-0.989,0.535-1.371,0.945
					c-0.383,0.41-0.68,0.909-0.896,1.498c-0.215,0.587-0.321,1.247-0.321,1.981c0,0.759,0.106,1.434,0.321,2.022
					c0.216,0.593,0.505,1.088,0.872,1.493c0.366,0.402,0.799,0.714,1.296,0.927c0.497,0.216,1.032,0.322,1.604,0.322
					c0.342,0,0.652-0.018,0.927-0.055c0.276-0.039,0.531-0.099,0.767-0.179c0.232-0.081,0.453-0.185,0.66-0.312
					c0.209-0.127,0.416-0.286,0.621-0.473c0.061-0.055,0.127-0.099,0.196-0.133C134.841,51.798,134.917,51.779,134.999,51.779z"/>
				<path fill="#00A99D" d="M140.826,47.126h0.586c0.237,0,0.433-0.033,0.59-0.099c0.154-0.064,0.289-0.168,0.399-0.312l3.722-4.71
					c0.155-0.2,0.317-0.338,0.488-0.415c0.172-0.075,0.388-0.117,0.649-0.117h2.163l-4.541,5.604
					c-0.144,0.177-0.279,0.322-0.411,0.441c-0.131,0.117-0.271,0.213-0.42,0.288c0.205,0.075,0.391,0.179,0.556,0.316
					c0.165,0.136,0.324,0.31,0.48,0.522l4.682,6.314h-2.221c-0.299,0-0.521-0.044-0.667-0.127c-0.146-0.083-0.269-0.208-0.367-0.369
					l-3.813-4.979c-0.126-0.161-0.266-0.278-0.421-0.349c-0.155-0.072-0.376-0.108-0.662-0.108h-0.792v5.933h-2.509V41.463h2.509
					V47.126z"/>
			</g>
		</g>
	</g>
</g>
<g>
	<path fill="#685C61" d="M0,16.224c3.095,0,3.53-1.7,3.53-3.227c0-1.217-0.174-2.438-0.348-3.66c-0.174-1.221-0.35-2.399-0.35-3.62
		c0-4.011,2.616-5.707,6.322-5.707h0.916v2.396H9.285c-2.573,0-3.445,1.395-3.445,3.747c0,1.005,0.132,2.049,0.306,3.096
		c0.174,1.09,0.305,2.137,0.305,3.312c0.044,2.79-1.177,4.188-3.14,4.706v0.093c1.963,0.477,3.184,1.959,3.14,4.749
		c0,1.179-0.131,2.266-0.305,3.315C5.972,26.51,5.84,27.515,5.84,28.562c0,2.442,1.003,3.791,3.445,3.791h0.785v2.399H9.154
		c-3.619,0-6.322-1.568-6.322-5.974c0-1.175,0.175-2.396,0.35-3.574c0.174-1.178,0.348-2.357,0.348-3.532
		c0-1.352-0.435-3.227-3.53-3.227V16.224z"/>
	<g>
		<g>
			<g>
				<path fill="#685C61" d="M13.817,21.28h2.081c0.216,0,0.396,0.051,0.54,0.15c0.144,0.102,0.241,0.238,0.291,0.411l2.266,7.97
					c0.057,0.197,0.105,0.411,0.152,0.64c0.046,0.231,0.09,0.477,0.133,0.732c0.05-0.256,0.104-0.501,0.162-0.732
					c0.059-0.229,0.121-0.442,0.188-0.64l2.617-7.97c0.05-0.141,0.146-0.27,0.29-0.388c0.145-0.117,0.321-0.174,0.53-0.174h0.727
					c0.216,0,0.395,0.051,0.535,0.15c0.141,0.102,0.24,0.238,0.296,0.411l2.599,7.97c0.135,0.393,0.251,0.83,0.35,1.31
					c0.043-0.24,0.087-0.47,0.134-0.691c0.046-0.221,0.094-0.427,0.143-0.618l2.267-7.97c0.042-0.154,0.138-0.286,0.285-0.397
					c0.148-0.109,0.326-0.164,0.534-0.164h1.944l-4.138,13.323h-2.237l-2.912-9.104c-0.037-0.116-0.076-0.242-0.115-0.377
					c-0.04-0.136-0.078-0.28-0.116-0.434c-0.037,0.153-0.075,0.298-0.115,0.434c-0.039,0.135-0.078,0.261-0.114,0.377l-2.94,9.104
					h-2.237L13.817,21.28z"/>
				<path fill="#685C61" d="M37.129,34.604H34.64V21.28h2.489V34.604z"/>
				<path fill="#685C61" d="M46.242,32.78c0.558,0,1.046-0.051,1.461-0.153c0.414-0.102,0.809-0.241,1.183-0.419v-2.424h-1.667
					c-0.159,0-0.284-0.045-0.377-0.134c-0.093-0.088-0.139-0.198-0.139-0.326v-1.4h4.432v5.391
					c-0.337,0.244-0.689,0.458-1.055,0.641c-0.365,0.18-0.756,0.328-1.171,0.446c-0.415,0.115-0.857,0.204-1.331,0.262
					c-0.473,0.06-0.982,0.089-1.529,0.089c-0.972,0-1.864-0.17-2.682-0.508s-1.523-0.809-2.12-1.41
					c-0.595-0.603-1.061-1.321-1.396-2.155c-0.335-0.837-0.501-1.749-0.501-2.737c0-1.001,0.162-1.919,0.487-2.755
					c0.325-0.837,0.788-1.556,1.388-2.156c0.598-0.603,1.324-1.069,2.179-1.402c0.854-0.33,1.813-0.497,2.875-0.497
					c1.088,0,2.029,0.163,2.824,0.484c0.794,0.322,1.469,0.742,2.022,1.259l-0.719,1.124c-0.142,0.227-0.328,0.34-0.562,0.34
					c-0.148,0-0.299-0.048-0.453-0.146c-0.194-0.117-0.396-0.233-0.603-0.351s-0.433-0.217-0.682-0.303
					c-0.248-0.087-0.529-0.157-0.839-0.214c-0.311-0.056-0.668-0.082-1.073-0.082c-0.657,0-1.252,0.109-1.782,0.331
					c-0.533,0.221-0.985,0.538-1.361,0.949c-0.374,0.411-0.661,0.907-0.865,1.484c-0.202,0.577-0.304,1.222-0.304,1.935
					c0,0.768,0.107,1.451,0.322,2.05c0.215,0.6,0.516,1.104,0.903,1.516c0.387,0.411,0.849,0.727,1.383,0.946
					C45.025,32.67,45.608,32.78,46.242,32.78z"/>
				<path fill="#685C61" d="M61.849,21.28v1.972h-5.904v3.694h4.652v1.907h-4.652v3.77h5.904v1.98h-8.402V21.28H61.849z"/>
				<path fill="#685C61" d="M66.477,32.559h5.335v2.045h-7.813V21.28h2.479V32.559z"/>
				<path fill="#685C61" d="M80.504,29.688c0.09,0.212,0.177,0.425,0.264,0.641c0.084-0.222,0.175-0.438,0.267-0.653
					c0.093-0.216,0.189-0.422,0.295-0.619l3.943-7.381c0.051-0.091,0.1-0.166,0.152-0.221s0.11-0.096,0.175-0.119
					c0.065-0.025,0.138-0.04,0.217-0.047c0.079-0.006,0.175-0.008,0.286-0.008h1.87v13.323h-2.185v-8.606
					c0-0.159,0.005-0.335,0.014-0.524c0.01-0.19,0.023-0.384,0.041-0.582l-4.025,7.557c-0.093,0.172-0.212,0.306-0.36,0.401
					c-0.146,0.096-0.318,0.143-0.515,0.143h-0.342c-0.197,0-0.368-0.047-0.517-0.143c-0.146-0.096-0.265-0.229-0.357-0.401
					l-4.083-7.584c0.025,0.204,0.041,0.401,0.052,0.596c0.009,0.193,0.013,0.371,0.013,0.538v8.606h-2.184V21.28h1.87
					c0.11,0,0.206,0.002,0.286,0.008c0.079,0.007,0.151,0.021,0.216,0.047c0.065,0.023,0.126,0.064,0.18,0.119
					c0.055,0.055,0.107,0.13,0.156,0.221l3.981,7.4C80.319,29.271,80.416,29.477,80.504,29.688z"/>
				<path fill="#685C61" d="M102.376,34.604h-1.918c-0.215,0-0.392-0.054-0.53-0.161c-0.137-0.107-0.237-0.24-0.299-0.401
					l-0.996-2.718h-5.52l-0.994,2.718c-0.049,0.144-0.146,0.271-0.29,0.388c-0.145,0.118-0.321,0.175-0.531,0.175h-1.925
					l5.234-13.323h2.534L102.376,34.604z M93.75,29.572h4.249l-1.623-4.433c-0.073-0.196-0.154-0.428-0.243-0.695
					c-0.09-0.267-0.178-0.559-0.262-0.871c-0.087,0.313-0.172,0.604-0.255,0.875c-0.081,0.272-0.163,0.507-0.244,0.71L93.75,29.572z
					"/>
				<path fill="#685C61" d="M105.324,21.294c0.073,0.007,0.14,0.027,0.198,0.055c0.058,0.027,0.115,0.066,0.171,0.119
					c0.055,0.053,0.115,0.122,0.185,0.207l6.993,8.912c-0.025-0.216-0.042-0.428-0.051-0.633c-0.01-0.205-0.015-0.397-0.015-0.576
					V21.28h2.185v13.323h-1.281c-0.196,0-0.359-0.03-0.488-0.093c-0.129-0.061-0.256-0.17-0.378-0.33l-6.965-8.875
					c0.018,0.197,0.03,0.392,0.041,0.586c0.009,0.193,0.013,0.369,0.013,0.53v8.182h-2.183V21.28h1.298
					C105.159,21.28,105.25,21.283,105.324,21.294z"/>
			</g>
			<g>
				<path fill="#685C61" d="M16.294,5.594h0.581c0.232,0,0.427-0.033,0.58-0.096c0.154-0.064,0.286-0.169,0.396-0.31l3.677-4.654
					c0.153-0.196,0.314-0.333,0.483-0.409c0.17-0.076,0.383-0.115,0.641-0.115h2.138l-4.487,5.538
					c-0.142,0.172-0.276,0.316-0.405,0.435c-0.129,0.114-0.268,0.21-0.414,0.283c0.201,0.074,0.385,0.178,0.548,0.313
					c0.162,0.136,0.321,0.309,0.474,0.518l4.626,6.239h-2.193c-0.294,0-0.514-0.042-0.658-0.126
					c-0.146-0.082-0.267-0.204-0.364-0.364l-3.769-4.919c-0.122-0.16-0.261-0.275-0.414-0.347c-0.154-0.069-0.372-0.105-0.655-0.105
					h-0.783v5.861h-2.478V0h2.478V5.594z"/>
				<path fill="#685C61" d="M35,0.01v1.972h-5.906v3.695h4.653v1.906h-4.653v3.77H35v1.982h-8.402V0.01H35z"/>
				<path fill="#685C61" d="M39.708,8.128v5.207h-2.479V0.01h4.063c0.91,0,1.688,0.094,2.336,0.282
					c0.648,0.186,1.18,0.449,1.594,0.787c0.415,0.339,0.719,0.742,0.913,1.212c0.193,0.47,0.29,0.987,0.29,1.553
					c0,0.448-0.066,0.872-0.198,1.271c-0.132,0.399-0.321,0.762-0.57,1.089c-0.249,0.325-0.557,0.611-0.922,0.855
					c-0.365,0.247-0.782,0.442-1.249,0.589c0.313,0.179,0.583,0.435,0.812,0.767l3.335,4.921h-2.23c-0.215,0-0.397-0.044-0.548-0.13
					s-0.278-0.209-0.382-0.368L41.671,8.57c-0.104-0.161-0.221-0.274-0.347-0.341c-0.126-0.068-0.311-0.102-0.558-0.102H39.708z
					 M39.708,6.351h1.55c0.466,0,0.873-0.06,1.22-0.177c0.348-0.116,0.632-0.278,0.857-0.483c0.224-0.206,0.392-0.449,0.5-0.732
					c0.112-0.282,0.167-0.593,0.167-0.931c0-0.676-0.223-1.194-0.667-1.557c-0.446-0.362-1.126-0.544-2.042-0.544h-1.585V6.351z"/>
				<path fill="#685C61" d="M57.621,0.01v1.972h-5.906v3.695h4.653v1.906h-4.653v3.77h5.906v1.982h-8.402V0.01H57.621z"/>
				<path fill="#685C61" d="M61.344,0.022c0.073,0.011,0.14,0.028,0.198,0.056c0.058,0.029,0.114,0.068,0.17,0.121
					c0.056,0.052,0.116,0.122,0.184,0.206l6.995,8.911c-0.025-0.216-0.043-0.426-0.052-0.63c-0.009-0.206-0.014-0.398-0.014-0.576
					V0.01h2.184v13.325h-1.28c-0.197,0-0.36-0.032-0.489-0.093c-0.128-0.063-0.255-0.173-0.377-0.333l-6.967-8.871
					c0.018,0.195,0.033,0.391,0.042,0.583c0.01,0.193,0.013,0.37,0.013,0.53v8.184h-2.183V0.01h1.299
					C61.177,0.01,61.27,0.014,61.344,0.022z"/>
			</g>
		</g>
	</g>
</g>
<g>
	<path fill="#00A99D" d="M163.052,59.993c-3.079,0-3.513,1.691-3.513,3.21c0,1.211,0.174,2.426,0.347,3.642
		c0.174,1.214,0.348,2.387,0.348,3.602c0,3.99-2.603,5.679-6.29,5.679h-0.911v-2.384h0.781c2.561,0,3.427-1.388,3.427-3.729
		c0-0.999-0.13-2.038-0.304-3.08c-0.172-1.083-0.303-2.125-0.303-3.294c-0.045-2.776,1.17-4.167,3.124-4.683v-0.093
		c-1.954-0.473-3.169-1.949-3.124-4.724c0-1.174,0.131-2.255,0.303-3.3c0.174-1.08,0.304-2.08,0.304-3.122
		c0-2.429-0.997-3.771-3.427-3.771h-0.781v-2.387h0.911c3.602,0,6.29,1.56,6.29,5.943c0,1.169-0.174,2.383-0.348,3.556
		c-0.173,1.172-0.347,2.345-0.347,3.515c0,1.345,0.434,3.21,3.513,3.21V59.993z"/>
</g>
</svg>
